<svg xmlns="http://www.w3.org/2000/svg" version="1.1" xmlns:xlink="http://www.w3.org/1999/xlink" xmlns:svgjs="http://svgjs.dev/svgjs" width="1590" height="150" preserveAspectRatio="none" viewBox="0 0 1590 150"><g mask="url(&quot;#SvgjsMask1044&quot;)" fill="none"><rect width="1590" height="150" x="0" y="0" fill="rgba(78, 153, 95, 1)"></rect><path d="M309 28L308 -71" stroke-width="8" stroke="url(&quot;#SvgjsLinearGradient1045&quot;)" stroke-linecap="round" class="Up"></path><path d="M245 96L244 -1" stroke-width="8" stroke="url(&quot;#SvgjsLinearGradient1045&quot;)" stroke-linecap="round" class="Up"></path><path d="M760 100L759 50" stroke-width="8" stroke="url(&quot;#SvgjsLinearGradient1046&quot;)" stroke-linecap="round" class="Down"></path><path d="M650 6L649 -45" stroke-width="6" stroke="url(&quot;#SvgjsLinearGradient1045&quot;)" stroke-linecap="round" class="Up"></path><path d="M449 8L448 83" stroke-width="6" stroke="url(&quot;#SvgjsLinearGradient1045&quot;)" stroke-linecap="round" class="Up"></path><path d="M527 66L526 175" stroke-width="10" stroke="url(&quot;#SvgjsLinearGradient1046&quot;)" stroke-linecap="round" class="Down"></path><path d="M1422 73L1421 180" stroke-width="10" stroke="url(&quot;#SvgjsLinearGradient1046&quot;)" stroke-linecap="round" class="Down"></path><path d="M676 122L675 25" stroke-width="6" stroke="url(&quot;#SvgjsLinearGradient1046&quot;)" stroke-linecap="round" class="Down"></path><path d="M1110 114L1109 159" stroke-width="8" stroke="url(&quot;#SvgjsLinearGradient1046&quot;)" stroke-linecap="round" class="Down"></path><path d="M1235 82L1234 134" stroke-width="10" stroke="url(&quot;#SvgjsLinearGradient1046&quot;)" stroke-linecap="round" class="Down"></path><path d="M1577 145L1576 99" stroke-width="10" stroke="url(&quot;#SvgjsLinearGradient1045&quot;)" stroke-linecap="round" class="Up"></path><path d="M200 48L199 -13" stroke-width="6" stroke="url(&quot;#SvgjsLinearGradient1046&quot;)" stroke-linecap="round" class="Down"></path><path d="M759 135L758 59" stroke-width="8" stroke="url(&quot;#SvgjsLinearGradient1045&quot;)" stroke-linecap="round" class="Up"></path><path d="M552 124L551 77" stroke-width="6" stroke="url(&quot;#SvgjsLinearGradient1046&quot;)" stroke-linecap="round" class="Down"></path><path d="M650 138L649 235" stroke-width="6" stroke="url(&quot;#SvgjsLinearGradient1046&quot;)" stroke-linecap="round" class="Down"></path><path d="M1562 31L1561 85" stroke-width="10" stroke="url(&quot;#SvgjsLinearGradient1045&quot;)" stroke-linecap="round" class="Up"></path><path d="M1138 22L1137 68" stroke-width="10" stroke="url(&quot;#SvgjsLinearGradient1046&quot;)" stroke-linecap="round" class="Down"></path><path d="M94 27L93 -32" stroke-width="10" stroke="url(&quot;#SvgjsLinearGradient1046&quot;)" stroke-linecap="round" class="Down"></path><path d="M192 95L191 13" stroke-width="6" stroke="url(&quot;#SvgjsLinearGradient1046&quot;)" stroke-linecap="round" class="Down"></path><path d="M1174 140L1173 216" stroke-width="10" stroke="url(&quot;#SvgjsLinearGradient1046&quot;)" stroke-linecap="round" class="Down"></path><path d="M851 83L850 -15" stroke-width="10" stroke="url(&quot;#SvgjsLinearGradient1046&quot;)" stroke-linecap="round" class="Down"></path><path d="M1322 35L1321 144" stroke-width="6" stroke="url(&quot;#SvgjsLinearGradient1046&quot;)" stroke-linecap="round" class="Down"></path><path d="M424 1L423 -48" stroke-width="6" stroke="url(&quot;#SvgjsLinearGradient1045&quot;)" stroke-linecap="round" class="Up"></path><path d="M610 77L609 116" stroke-width="6" stroke="url(&quot;#SvgjsLinearGradient1045&quot;)" stroke-linecap="round" class="Up"></path><path d="M1153 90L1152 185" stroke-width="6" stroke="url(&quot;#SvgjsLinearGradient1046&quot;)" stroke-linecap="round" class="Down"></path><path d="M1209 133L1208 237" stroke-width="8" stroke="url(&quot;#SvgjsLinearGradient1046&quot;)" stroke-linecap="round" class="Down"></path><path d="M240 105L239 -4" stroke-width="6" stroke="url(&quot;#SvgjsLinearGradient1045&quot;)" stroke-linecap="round" class="Up"></path><path d="M486 2L485 -104" stroke-width="10" stroke="url(&quot;#SvgjsLinearGradient1046&quot;)" stroke-linecap="round" class="Down"></path><path d="M852 131L851 85" stroke-width="6" stroke="url(&quot;#SvgjsLinearGradient1046&quot;)" stroke-linecap="round" class="Down"></path><path d="M1133 114L1132 75" stroke-width="8" stroke="url(&quot;#SvgjsLinearGradient1046&quot;)" stroke-linecap="round" class="Down"></path><path d="M827 43L826 100" stroke-width="10" stroke="url(&quot;#SvgjsLinearGradient1046&quot;)" stroke-linecap="round" class="Down"></path><path d="M1254 89L1253 31" stroke-width="8" stroke="url(&quot;#SvgjsLinearGradient1045&quot;)" stroke-linecap="round" class="Up"></path><path d="M623 63L622 -12" stroke-width="10" stroke="url(&quot;#SvgjsLinearGradient1045&quot;)" stroke-linecap="round" class="Up"></path><path d="M726 43L725 -14" stroke-width="6" stroke="url(&quot;#SvgjsLinearGradient1045&quot;)" stroke-linecap="round" class="Up"></path><path d="M717 92L716 194" stroke-width="6" stroke="url(&quot;#SvgjsLinearGradient1045&quot;)" stroke-linecap="round" class="Up"></path><path d="M516 143L515 105" stroke-width="6" stroke="url(&quot;#SvgjsLinearGradient1045&quot;)" stroke-linecap="round" class="Up"></path><path d="M821 111L820 26" stroke-width="10" stroke="url(&quot;#SvgjsLinearGradient1045&quot;)" stroke-linecap="round" class="Up"></path><path d="M1224 144L1223 234" stroke-width="8" stroke="url(&quot;#SvgjsLinearGradient1046&quot;)" stroke-linecap="round" class="Down"></path><path d="M698 34L697 126" stroke-width="6" stroke="url(&quot;#SvgjsLinearGradient1046&quot;)" stroke-linecap="round" class="Down"></path><path d="M294 19L293 -84" stroke-width="6" stroke="url(&quot;#SvgjsLinearGradient1046&quot;)" stroke-linecap="round" class="Down"></path></g><defs><mask id="SvgjsMask1044"><rect width="1590" height="150" fill="#ffffff"></rect></mask><linearGradient x1="0%" y1="100%" x2="0%" y2="0%" id="SvgjsLinearGradient1045"><stop stop-color="rgba(91, 183, 112, 0)" offset="0"></stop><stop stop-color="rgba(91, 183, 112, 1)" offset="1"></stop></linearGradient><linearGradient x1="0%" y1="0%" x2="0%" y2="100%" id="SvgjsLinearGradient1046"><stop stop-color="rgba(91, 183, 112, 0)" offset="0"></stop><stop stop-color="rgba(91, 183, 112, 1)" offset="1"></stop></linearGradient></defs></svg>