<svg xmlns="http://www.w3.org/2000/svg" version="1.1" xmlns:xlink="http://www.w3.org/1999/xlink" xmlns:svgjs="http://svgjs.dev/svgjs" width="1440" height="560" preserveAspectRatio="none" viewBox="0 0 1440 560"><g clip-path="url(&quot;#SvgjsClipPath1110&quot;)" fill="none"><rect width="1440" height="560" x="0" y="0" fill="rgba(41, 178, 132, 1)"></rect><path d="M47.37 37.46Q55.52 37.88 63.68 38.29 71.83 38.7 79.98 39.1 88.14 39.5 96.29 39.89 104.44 40.28 112.6 40.66 120.75 41.03 128.9 41.4 137.06 41.75 145.21 42.1 153.36 42.44 161.52 42.77 169.67 43.09 177.82 43.4 185.98 43.7 194.13 43.99" stroke="rgba(44, 198, 146, 1)" stroke-width="4"></path><path d="M228.73 45.08Q237.7 45.32 246.67 45.56 255.64 45.77 264.62 45.98 273.59 46.15 282.56 46.32" stroke="rgba(44, 198, 146, 1)" stroke-width="4"></path><path d="M293.15 46.49Q302.31 46.61 311.47 46.73 320.63 46.81 329.8 46.9 338.96 46.94 348.12 46.98" stroke="rgba(34, 144, 107, 1)" stroke-width="4"></path><path d="M376.29 46.97Q384.39 46.92 392.5 46.88 400.6 46.8 408.7 46.73 416.81 46.63 424.91 46.52 433.01 46.39 441.12 46.26 449.22 46.1 457.32 45.93 465.43 45.75 473.53 45.56 481.63 45.34 489.74 45.13 497.84 44.89 505.94 44.65 514.05 44.38 522.15 44.12" stroke="rgba(34, 144, 107, 1)" stroke-width="4"></path><path d="M539.05 43.52Q547.17 43.21 555.29 42.9 563.41 42.57 571.53 42.24 579.64 41.89 587.76 41.55 595.88 41.18 604 40.82 612.12 40.44 620.24 40.06 628.36 39.67 636.48 39.28 644.59 38.87 652.71 38.47 660.83 38.06 668.95 37.65" stroke="rgba(44, 198, 146, 1)" stroke-width="4"></path><path d="M704.02 35.84Q710.64 35.49 717.25 35.14 723.87 34.8 730.48 34.45 737.1 34.11 743.71 33.76" stroke="rgba(34, 144, 107, 1)" stroke-width="4"></path><path d="M777.99 32Q785.9 31.6 793.82 31.2 801.73 30.81 809.65 30.42 817.56 30.05 825.48 29.67 833.39 29.31 841.3 28.94 849.22 28.59 857.13 28.24 865.05 27.91 872.96 27.57" stroke="rgba(44, 198, 146, 1)" stroke-width="4"></path><path d="M891.76 26.83Q899.78 26.53 907.8 26.23 915.81 25.96 923.83 25.68 931.85 25.43 939.87 25.17 947.89 24.95 955.9 24.72 963.92 24.51 971.94 24.31 979.96 24.13 987.98 23.95 996 23.8 1004.01 23.65 1012.03 23.53 1020.05 23.41" stroke="rgba(34, 144, 107, 1)" stroke-width="4"></path><path d="M1036.85 23.21Q1044.38 23.15 1051.91 23.09 1059.44 23.05 1066.97 23.02 1074.5 23.01 1082.02 23 1089.55 23.02 1097.08 23.03 1104.61 23.08 1112.14 23.12 1119.67 23.19 1127.2 23.25 1134.73 23.35 1142.26 23.44 1149.79 23.56 1157.32 23.68 1164.85 23.82 1172.38 23.96 1179.9 24.13 1187.43 24.29 1194.96 24.48 1202.49 24.67 1210.02 24.89 1217.55 25.1" stroke="rgba(34, 144, 107, 1)" stroke-width="4"></path><path d="M1247.67 26.07Q1256.07 26.38 1264.47 26.68 1272.88 27.01 1281.28 27.34 1289.68 27.69 1298.08 28.04 1306.49 28.4 1314.89 28.77 1323.29 29.15 1331.69 29.54 1340.1 29.94 1348.5 30.34" stroke="rgba(34, 144, 107, 1)" stroke-width="4"></path><path d="M1367.06 31.25Q1375.15 31.65 1383.25 32.06 1391.34 32.47 1399.43 32.89 1407.53 33.31 1415.62 33.73 1423.72 34.15 1431.81 34.57" stroke="rgba(44, 198, 146, 1)" stroke-width="4"></path><path d="M45.94 72.39Q49.26 72.56 52.58 72.73 55.89 72.9 59.21 73.07 62.53 73.23 65.85 73.4" stroke="rgba(44, 198, 146, 1)" stroke-width="4"></path><path d="M81.35 74.17Q89.21 74.55 97.07 74.93 104.93 75.3 112.79 75.67 120.66 76.03 128.52 76.38 136.38 76.72 144.24 77.06 152.1 77.39 159.96 77.71 167.82 78.02 175.69 78.32 183.55 78.61 191.41 78.9 199.27 79.16 207.13 79.43" stroke="rgba(34, 144, 107, 1)" stroke-width="4"></path><path d="M240.73 80.41Q248.33 80.6 255.94 80.78 263.54 80.95 271.15 81.11 278.75 81.25 286.36 81.39 293.96 81.5 301.56 81.61 309.17 81.7 316.77 81.79 324.38 81.85 331.98 81.91 339.59 81.95 347.19 81.98 354.79 81.99 362.4 82 370 81.98 377.61 81.96 385.21 81.92 392.81 81.88 400.42 81.81 408.02 81.74 415.63 81.64 423.23 81.55 430.84 81.43 438.44 81.3" stroke="rgba(34, 144, 107, 1)" stroke-width="4"></path><path d="M462.18 80.83Q469.79 80.64 477.4 80.46 485.02 80.25 492.63 80.05 500.24 79.82 507.85 79.59 515.47 79.34 523.08 79.09 530.69 78.82 538.3 78.55 545.91 78.26 553.53 77.97 561.14 77.66 568.75 77.36 576.36 77.03 583.98 76.71 591.59 76.37 599.2 76.04" stroke="rgba(34, 144, 107, 1)" stroke-width="4"></path><path d="M632.76 74.46Q641.81 74.01 650.86 73.57 659.91 73.11 668.96 72.65 678.02 72.18 687.07 71.72 696.12 71.25 705.17 70.78" stroke="rgba(34, 144, 107, 1)" stroke-width="4"></path><path d="M744.72 68.71Q753.03 68.28 761.34 67.85 769.65 67.42 777.96 67 786.27 66.58 794.58 66.16 802.89 65.76 811.2 65.35 819.5 64.96 827.81 64.56 836.12 64.18 844.43 63.8 852.74 63.44 861.05 63.07 869.36 62.73 877.67 62.38 885.98 62.05 894.29 61.73" stroke="rgba(34, 144, 107, 1)" stroke-width="4"></path><path d="M932.16 60.41Q940.31 60.17 948.46 59.92 956.61 59.7 964.75 59.49 972.9 59.29 981.05 59.1" stroke="rgba(34, 144, 107, 1)" stroke-width="4"></path><path d="M1013.08 58.51Q1021.33 58.4 1029.59 58.29 1037.84 58.21 1046.1 58.13 1054.36 58.08 1062.61 58.03 1070.86 58.02 1079.12 58 1087.38 58.01 1095.63 58.03 1103.88 58.07 1112.14 58.12 1120.39 58.19 1128.65 58.27" stroke="rgba(34, 144, 107, 1)" stroke-width="4"></path><path d="M1168.44 58.88Q1176.55 59.06 1184.66 59.23 1192.77 59.43 1200.88 59.63 1208.99 59.86 1217.1 60.08 1225.21 60.34 1233.32 60.59 1241.43 60.86 1249.54 61.14 1257.65 61.43 1265.76 61.73 1273.88 62.05 1281.99 62.37 1290.1 62.7 1298.21 63.04 1306.32 63.39 1314.43 63.75 1322.54 64.12 1330.65 64.49 1338.76 64.87 1346.87 65.26 1354.98 65.65 1363.09 66.05" stroke="rgba(34, 144, 107, 1)" stroke-width="4"></path><path d="M1382.96 67.04Q1387.03 67.25 1391.11 67.46 1395.18 67.67 1399.26 67.88 1403.33 68.09 1407.41 68.3 1411.48 68.51 1415.55 68.72 1419.63 68.93 1423.7 69.15 1427.78 69.36 1431.85 69.57 1435.93 69.79 1440 70" stroke="rgba(44, 198, 146, 1)" stroke-width="4"></path><path d="M0.98 105.05Q8.56 105.45 16.13 105.84 23.71 106.24 31.29 106.63 38.86 107.02 46.44 107.41 54.02 107.8 61.59 108.19 69.17 108.57 76.75 108.94 84.32 109.31 91.9 109.68" stroke="rgba(34, 144, 107, 1)" stroke-width="4"></path><path d="M109.49 110.52Q117.68 110.89 125.87 111.26 134.05 111.62 142.24 111.98 150.43 112.32 158.62 112.66 166.81 112.98 174.99 113.3 183.18 113.6 191.37 113.9" stroke="rgba(44, 198, 146, 1)" stroke-width="4"></path><path d="M208.78 114.48Q213.81 114.64 218.84 114.79 223.88 114.94 228.91 115.09 233.94 115.23 238.97 115.37" stroke="rgba(44, 198, 146, 1)" stroke-width="4"></path><path d="M272.77 116.14Q280.92 116.29 289.07 116.43 297.22 116.55 305.37 116.66 313.52 116.75 321.67 116.83 329.82 116.89 337.97 116.94 346.12 116.97 354.27 117 362.42 116.99 370.57 116.99 378.72 116.95 386.87 116.92" stroke="rgba(34, 144, 107, 1)" stroke-width="4"></path><path d="M405.2 116.77Q413.84 116.66 422.48 116.56 431.12 116.42 439.76 116.28 448.4 116.11 457.04 115.94 465.68 115.74 474.32 115.54 482.96 115.31 491.6 115.08" stroke="rgba(44, 198, 146, 1)" stroke-width="4"></path><path d="M511.22 114.48Q519.23 114.21 527.24 113.94 535.24 113.65 543.25 113.36 551.26 113.05 559.26 112.74 567.27 112.41 575.28 112.08 583.29 111.74 591.3 111.39 599.3 111.03 607.31 110.67 615.32 110.29 623.33 109.91 631.33 109.52 639.34 109.14" stroke="rgba(34, 144, 107, 1)" stroke-width="4"></path><path d="M650.54 108.58Q658.62 108.17 666.69 107.77 674.77 107.35 682.84 106.94 690.92 106.52 699 106.1 707.07 105.68 715.15 105.25 723.23 104.83 731.3 104.41 739.38 103.99 747.45 103.57 755.53 103.15 763.61 102.73 771.68 102.32 779.76 101.91 787.83 101.5 795.91 101.1" stroke="rgba(44, 198, 146, 1)" stroke-width="4"></path><path d="M815.72 100.13Q816.91 100.08 818.11 100.02 819.3 99.96 820.49 99.91 821.69 99.85 822.88 99.79" stroke="rgba(34, 144, 107, 1)" stroke-width="4"></path><path d="M839.81 99.01Q847.95 98.65 856.09 98.29 864.22 97.94 872.36 97.6 880.5 97.27 888.64 96.95 896.77 96.64 904.91 96.33 913.05 96.05 921.19 95.77 929.32 95.51 937.46 95.25 945.6 95.01 953.74 94.78 961.88 94.57 970.01 94.36 978.15 94.17 986.29 93.99 994.43 93.83 1002.56 93.68 1010.7 93.55 1018.84 93.42" stroke="rgba(44, 198, 146, 1)" stroke-width="4"></path><path d="M1056.11 93.07Q1064.13 93.04 1072.16 93.01 1080.18 93.01 1088.21 93.01 1096.24 93.04 1104.26 93.07 1112.28 93.13 1120.31 93.19 1128.34 93.27 1136.36 93.36 1144.38 93.48 1152.41 93.59 1160.43 93.74 1168.46 93.88 1176.49 94.05 1184.51 94.23" stroke="rgba(34, 144, 107, 1)" stroke-width="4"></path><path d="M1199.94 94.61Q1207.88 94.83 1215.83 95.05 1223.77 95.29 1231.72 95.53 1239.66 95.8 1247.61 96.07 1255.55 96.36 1263.49 96.65 1271.44 96.95 1279.38 97.26 1287.33 97.59 1295.27 97.92 1303.22 98.26 1311.16 98.6" stroke="rgba(34, 144, 107, 1)" stroke-width="4"></path><path d="M1337.71 99.82Q1345.78 100.21 1353.85 100.59 1361.92 100.99 1369.99 101.39 1378.05 101.8 1386.12 102.2 1394.19 102.62 1402.26 103.03" stroke="rgba(34, 144, 107, 1)" stroke-width="4"></path><path d="M1417.69 103.83Q1418.81 103.89 1419.92 103.95 1421.04 104.01 1422.15 104.07 1423.27 104.12 1424.38 104.18 1425.5 104.24 1426.61 104.3 1427.73 104.36 1428.85 104.42 1429.96 104.47 1431.08 104.53 1432.19 104.59 1433.31 104.65 1434.42 104.71 1435.54 104.77 1436.65 104.82 1437.77 104.88 1438.88 104.94 1440 105" stroke="rgba(34, 144, 107, 1)" stroke-width="4"></path><path d="M3.49 140.18Q6.39 140.33 9.29 140.49 12.19 140.64 15.08 140.79 17.98 140.94 20.88 141.09" stroke="rgba(44, 198, 146, 1)" stroke-width="4"></path><path d="M58.26 143.02Q66.66 143.44 75.07 143.86 83.47 144.27 91.87 144.68 100.28 145.08 108.68 145.48 117.08 145.86 125.49 146.25 133.89 146.61 142.29 146.98 150.7 147.33 159.1 147.68" stroke="rgba(44, 198, 146, 1)" stroke-width="4"></path><path d="M190.66 148.87Q198.42 149.13 206.17 149.4 213.93 149.64 221.68 149.88 229.44 150.1 237.19 150.32" stroke="rgba(44, 198, 146, 1)" stroke-width="4"></path><path d="M249.01 150.62Q256.61 150.79 264.22 150.97 271.82 151.12 279.43 151.27 287.03 151.39 294.63 151.52 302.24 151.61 309.84 151.71" stroke="rgba(44, 198, 146, 1)" stroke-width="4"></path><path d="M324.6 151.86Q332.17 151.91 339.74 151.95 347.32 151.98 354.89 152 362.46 151.99 370.03 151.99 377.61 151.96 385.18 151.93 392.75 151.87 400.32 151.81 407.9 151.73 415.47 151.65 423.04 151.54 430.61 151.43 438.18 151.3 445.76 151.17 453.33 151.01 460.9 150.86 468.47 150.67 476.05 150.49 483.62 150.29 491.19 150.09" stroke="rgba(34, 144, 107, 1)" stroke-width="4"></path><path d="M511.39 149.48Q519.13 149.22 526.86 148.96 534.6 148.68 542.33 148.4 550.07 148.1 557.81 147.8 565.54 147.48 573.28 147.17 581.01 146.84 588.75 146.5 596.48 146.16 604.22 145.81" stroke="rgba(44, 198, 146, 1)" stroke-width="4"></path><path d="M641.66 144.02Q644.55 143.88 647.44 143.74 650.34 143.59 653.23 143.45 656.12 143.3 659.01 143.16" stroke="rgba(44, 198, 146, 1)" stroke-width="4"></path><path d="M672.83 142.45Q680.83 142.04 688.82 141.63 696.82 141.21 704.82 140.79 712.81 140.38 720.81 139.96 728.81 139.54 736.81 139.12 744.8 138.7 752.8 138.29 760.8 137.88 768.79 137.46 776.79 137.06 784.79 136.65 792.78 136.26 800.78 135.86" stroke="rgba(34, 144, 107, 1)" stroke-width="4"></path><path d="M827.02 134.6Q835.02 134.23 843.01 133.86 851.01 133.51 859 133.16 867 132.82 874.99 132.49 882.99 132.17 890.98 131.86 898.98 131.56 906.97 131.26" stroke="rgba(34, 144, 107, 1)" stroke-width="4"></path><path d="M932.12 130.41Q939.96 130.18 947.81 129.94 955.65 129.73 963.49 129.52 971.34 129.33 979.18 129.14 987.02 128.98 994.87 128.82 1002.71 128.68 1010.55 128.55 1018.4 128.44 1026.24 128.33" stroke="rgba(34, 144, 107, 1)" stroke-width="4"></path><path d="M1037.33 128.21Q1046.45 128.14 1055.56 128.07 1064.68 128.04 1073.8 128 1082.91 128.01 1092.03 128.02 1101.14 128.06 1110.26 128.1" stroke="rgba(34, 144, 107, 1)" stroke-width="4"></path><path d="M1123.22 128.21Q1125.98 128.24 1128.73 128.27 1131.49 128.3 1134.25 128.33 1137 128.37 1139.76 128.41" stroke="rgba(44, 198, 146, 1)" stroke-width="4"></path><path d="M1159.33 128.71Q1167.78 128.88 1176.22 129.04 1184.67 129.24 1193.11 129.43 1201.56 129.66 1210 129.88 1218.45 130.13 1226.89 130.38 1235.34 130.66 1243.78 130.94" stroke="rgba(34, 144, 107, 1)" stroke-width="4"></path><path d="M1259.82 131.51Q1268.14 131.83 1276.47 132.15 1284.79 132.49 1293.11 132.82 1301.43 133.18 1309.76 133.54 1318.08 133.92 1326.4 134.29" stroke="rgba(44, 198, 146, 1)" stroke-width="4"></path><path d="M1353.55 135.58Q1360.75 135.93 1367.96 136.29 1375.16 136.65 1382.37 137.01 1389.57 137.38 1396.78 137.75 1403.98 138.12 1411.18 138.5 1418.39 138.87 1425.59 139.25 1432.8 139.62 1440 140" stroke="rgba(34, 144, 107, 1)" stroke-width="4"></path><path d="M45.8 177.38Q54.44 177.82 63.08 178.26 71.71 178.69 80.35 179.12 88.99 179.54 97.63 179.96 106.27 180.36 114.91 180.77 123.54 181.16 132.18 181.54 140.82 181.91 149.46 182.28" stroke="rgba(44, 198, 146, 1)" stroke-width="4"></path><path d="M160.18 182.72Q167.73 183.01 175.29 183.31 182.84 183.59 190.4 183.86 197.95 184.12 205.5 184.38 213.06 184.61 220.61 184.85 228.17 185.06 235.72 185.28 243.28 185.47 250.83 185.66 258.38 185.83 265.94 186 273.49 186.15 281.05 186.29 288.6 186.42 296.15 186.54 303.71 186.63 311.26 186.73 318.82 186.8 326.37 186.87 333.93 186.92 341.48 186.96" stroke="rgba(44, 198, 146, 1)" stroke-width="4"></path><path d="M381.23 186.95Q387.87 186.91 394.51 186.86 401.14 186.8 407.78 186.74 414.42 186.66 421.06 186.58" stroke="rgba(44, 198, 146, 1)" stroke-width="4"></path><path d="M438.95 186.29Q447.27 186.13 455.58 185.97 463.9 185.78 472.22 185.59 480.53 185.37 488.85 185.15 497.17 184.91 505.48 184.66 513.8 184.39 522.12 184.12 530.43 183.83 538.75 183.53 547.07 183.21 555.38 182.9 563.7 182.56 572.02 182.22 580.33 181.86 588.65 181.51" stroke="rgba(44, 198, 146, 1)" stroke-width="4"></path><path d="M607.68 180.65Q616.43 180.24 625.18 179.82 633.94 179.4 642.69 178.97 651.44 178.53 660.19 178.1 668.95 177.65 677.7 177.2" stroke="rgba(44, 198, 146, 1)" stroke-width="4"></path><path d="M701.02 175.99Q708.72 175.59 716.42 175.19 724.13 174.78 731.83 174.38 739.53 173.98 747.23 173.58 754.93 173.18 762.63 172.78 770.34 172.39 778.04 171.99 785.74 171.61 793.44 171.22 801.14 170.84 808.84 170.46 816.55 170.1 824.25 169.73 831.95 169.37 839.65 169.02 847.35 168.67 855.05 168.33 862.75 168 870.46 167.68 878.16 167.36 885.86 167.05" stroke="rgba(44, 198, 146, 1)" stroke-width="4"></path><path d="M903.81 166.37Q911.86 166.09 919.91 165.81 927.95 165.55 936 165.29 944.05 165.06 952.1 164.82 960.15 164.61 968.2 164.4 976.24 164.22 984.29 164.03 992.34 163.87 1000.39 163.72 1008.44 163.59 1016.48 163.46 1024.53 163.36 1032.58 163.26" stroke="rgba(44, 198, 146, 1)" stroke-width="4"></path><path d="M1065.69 163.02Q1067.97 163.02 1070.25 163.01 1072.53 163.01 1074.8 163 1077.08 163 1079.36 163" stroke="rgba(44, 198, 146, 1)" stroke-width="4"></path><path d="M1116.13 163.15Q1124.28 163.23 1132.42 163.31 1140.57 163.42 1148.71 163.54 1156.86 163.68 1165 163.82 1173.14 163.98 1181.29 164.15 1189.44 164.35 1197.58 164.54 1205.73 164.77 1213.87 164.99" stroke="rgba(44, 198, 146, 1)" stroke-width="4"></path><path d="M1252.77 166.25Q1260.45 166.54 1268.13 166.82 1275.81 167.12 1283.49 167.43 1291.17 167.75 1298.84 168.07 1306.52 168.4 1314.2 168.74 1321.88 169.09 1329.56 169.44 1337.24 169.8 1344.92 170.16 1352.6 170.54 1360.28 170.91 1367.96 171.29 1375.64 171.67 1383.31 172.06 1390.99 172.45 1398.67 172.85 1406.35 173.24 1414.03 173.64 1421.71 174.04" stroke="rgba(34, 144, 107, 1)" stroke-width="4"></path><path d="M6.09 210.32Q13.7 210.72 21.3 211.11 28.91 211.51 36.51 211.9 44.12 212.29 51.72 212.69 59.33 213.07 66.93 213.45" stroke="rgba(44, 198, 146, 1)" stroke-width="4"></path><path d="M79.64 214.09Q82.4 214.22 85.15 214.36 87.91 214.49 90.66 214.62 93.42 214.76 96.17 214.89" stroke="rgba(44, 198, 146, 1)" stroke-width="4"></path><path d="M128.33 216.37Q136.54 216.73 144.75 217.08 152.95 217.42 161.16 217.76 169.37 218.08 177.58 218.4 185.78 218.69 193.99 218.99 202.2 219.26 210.41 219.53 218.62 219.78 226.82 220.03 235.03 220.25 243.24 220.48 251.45 220.67 259.65 220.87 267.86 221.04 276.07 221.2" stroke="rgba(44, 198, 146, 1)" stroke-width="4"></path><path d="M287.43 221.4Q291.36 221.46 295.29 221.52 299.22 221.58 303.15 221.63 307.08 221.68 311.01 221.73" stroke="rgba(44, 198, 146, 1)" stroke-width="4"></path><path d="M336.55 221.94Q345.22 221.97 353.89 222 362.56 221.99 371.22 221.99 379.89 221.95 388.56 221.91 397.23 221.83 405.9 221.76 414.57 221.65 423.23 221.55 431.9 221.41 440.57 221.27" stroke="rgba(44, 198, 146, 1)" stroke-width="4"></path><path d="M454.04 221Q462.81 220.8 471.58 220.61 480.35 220.38 489.12 220.15 497.89 219.89 506.66 219.63" stroke="rgba(34, 144, 107, 1)" stroke-width="4"></path><path d="M537.31 218.58Q545.5 218.27 553.69 217.96 561.88 217.63 570.07 217.3 578.26 216.95 586.45 216.6 594.64 216.24 602.83 215.87 611.02 215.49 619.21 215.11 627.4 214.71 635.59 214.32 643.78 213.92 651.97 213.51 660.16 213.1 668.35 212.68 676.54 212.26 684.73 211.84 692.92 211.41 701.11 210.99" stroke="rgba(44, 198, 146, 1)" stroke-width="4"></path><path d="M721.15 209.94Q728.79 209.54 736.42 209.14 744.06 208.74 751.7 208.35 759.34 207.95 766.97 207.56 774.61 207.17 782.25 206.78 789.88 206.4 797.52 206.02 805.16 205.65 812.79 205.27 820.43 204.91 828.07 204.55 835.71 204.2 843.34 203.85 850.98 203.51 858.62 203.18 866.25 202.86 873.89 202.53" stroke="rgba(44, 198, 146, 1)" stroke-width="4"></path><path d="M897.89 201.59Q905.45 201.32 913.02 201.05 920.58 200.79 928.14 200.54 935.7 200.31 943.27 200.07 950.83 199.86 958.39 199.65 965.96 199.46 973.52 199.27 981.08 199.11 988.64 198.94 996.21 198.8 1003.77 198.66" stroke="rgba(34, 144, 107, 1)" stroke-width="4"></path><path d="M1032.37 198.26Q1040.05 198.19 1047.73 198.12 1055.41 198.08 1063.09 198.03 1070.77 198.02 1078.45 198 1086.13 198.01 1093.82 198.02 1101.5 198.06 1109.18 198.1 1116.86 198.16 1124.54 198.23 1132.22 198.32 1139.9 198.41 1147.58 198.52 1155.26 198.64" stroke="rgba(44, 198, 146, 1)" stroke-width="4"></path><path d="M1175.15 199.02Q1183.38 199.21 1191.61 199.39 1199.84 199.61 1208.06 199.83 1216.29 200.07 1224.52 200.31" stroke="rgba(34, 144, 107, 1)" stroke-width="4"></path><path d="M1237.97 200.74Q1246.01 201.02 1254.05 201.3 1262.09 201.6 1270.13 201.9 1278.16 202.22 1286.2 202.54 1294.24 202.88 1302.28 203.22" stroke="rgba(44, 198, 146, 1)" stroke-width="4"></path><path d="M1339.96 204.93Q1344.51 205.14 1349.05 205.36 1353.6 205.58 1358.15 205.8 1362.7 206.03 1367.24 206.25 1371.79 206.48 1376.34 206.71 1380.89 206.94 1385.43 207.17 1389.98 207.4 1394.53 207.63 1399.07 207.87 1403.62 208.1 1408.17 208.34 1412.72 208.57 1417.26 208.81 1421.81 209.05 1426.36 209.29 1430.91 209.52 1435.45 209.76 1440 210" stroke="rgba(44, 198, 146, 1)" stroke-width="4"></path><path d="M16.83 245.88Q19.74 246.03 22.65 246.18 25.55 246.34 28.46 246.49 31.37 246.64 34.28 246.79" stroke="rgba(34, 144, 107, 1)" stroke-width="4"></path><path d="M53.47 247.77Q60.18 248.11 66.89 248.45 73.59 248.79 80.3 249.12 87.01 249.45 93.72 249.77" stroke="rgba(34, 144, 107, 1)" stroke-width="4"></path><path d="M111.69 250.62Q115.37 250.79 119.05 250.96 122.72 251.12 126.4 251.29 130.08 251.45 133.76 251.61" stroke="rgba(34, 144, 107, 1)" stroke-width="4"></path><path d="M148.37 252.24Q151.38 252.36 154.38 252.49 157.38 252.61 160.39 252.73 163.4 252.85 166.4 252.97" stroke="rgba(44, 198, 146, 1)" stroke-width="4"></path><path d="M195.84 254.05Q201.78 254.25 207.71 254.45 213.65 254.63 219.59 254.82 225.52 254.99 231.46 255.16" stroke="rgba(44, 198, 146, 1)" stroke-width="4"></path><path d="M243.84 255.49Q251.43 255.67 259.02 255.85 266.61 256.01 274.2 256.17 281.79 256.3 289.38 256.43 296.97 256.54 304.56 256.65 312.15 256.73 319.74 256.82 327.33 256.87 334.92 256.93 342.51 256.96 350.1 256.99 357.69 256.99 365.28 257 372.87 256.97 380.46 256.95" stroke="rgba(44, 198, 146, 1)" stroke-width="4"></path><path d="M390.72 256.89Q397.17 256.84 403.61 256.78 410.06 256.71 416.51 256.64 422.95 256.55 429.4 256.45" stroke="rgba(34, 144, 107, 1)" stroke-width="4"></path><path d="M450.88 256.07Q459.15 255.89 467.42 255.71 475.69 255.5 483.96 255.29 492.22 255.05 500.49 254.81 508.76 254.55 517.03 254.29 525.3 254.01 533.57 253.72 541.84 253.41 550.11 253.1 558.38 252.77 566.64 252.44 574.91 252.09 583.18 251.75 591.45 251.38 599.72 251.01" stroke="rgba(44, 198, 146, 1)" stroke-width="4"></path><path d="M633.78 249.41Q641.81 249.01 649.84 248.62 657.87 248.21 665.9 247.81 673.93 247.39 681.95 246.98 689.98 246.57 698.01 246.15 706.04 245.73 714.07 245.31 722.1 244.89 730.13 244.47" stroke="rgba(44, 198, 146, 1)" stroke-width="4"></path><path d="M743.75 243.76Q752 243.33 760.26 242.9 768.51 242.48 776.76 242.06 785.01 241.64 793.27 241.23 801.52 240.82 809.77 240.42 818.02 240.03 826.28 239.63 834.53 239.25 842.78 238.87 851.04 238.51 859.29 238.15 867.54 237.8 875.79 237.46 884.05 237.13 892.3 236.8" stroke="rgba(44, 198, 146, 1)" stroke-width="4"></path><path d="M922.9 235.71Q924.04 235.67 925.19 235.64 926.33 235.6 927.47 235.56 928.62 235.52 929.76 235.49" stroke="rgba(34, 144, 107, 1)" stroke-width="4"></path><path d="M965.03 234.48Q973.2 234.29 981.38 234.09 989.55 233.93 997.72 233.77 1005.89 233.63 1014.07 233.49 1022.24 233.39 1030.41 233.28 1038.59 233.2 1046.76 233.13 1054.93 233.08 1063.1 233.03 1071.28 233.02 1079.45 233 1087.62 233.01 1095.79 233.03 1103.97 233.07 1112.14 233.12" stroke="rgba(44, 198, 146, 1)" stroke-width="4"></path><path d="M1125.55 233.24Q1133.11 233.33 1140.67 233.42 1148.24 233.53 1155.8 233.65 1163.36 233.79 1170.92 233.93 1178.48 234.1 1186.04 234.26 1193.61 234.45 1201.17 234.64 1208.73 234.85 1216.29 235.06 1223.85 235.29 1231.42 235.53 1238.98 235.78 1246.54 236.03 1254.1 236.3 1261.66 236.58 1269.22 236.87 1276.79 237.16 1284.35 237.47 1291.91 237.77" stroke="rgba(44, 198, 146, 1)" stroke-width="4"></path><path d="M1311.03 238.6Q1318.66 238.94 1326.29 239.29 1333.91 239.64 1341.54 240 1349.17 240.37 1356.8 240.74 1364.43 241.12 1372.05 241.49 1379.68 241.88 1387.31 242.27" stroke="rgba(44, 198, 146, 1)" stroke-width="4"></path><path d="M1419.22 243.91Q1420.26 243.97 1421.3 244.02 1422.34 244.08 1423.38 244.13 1424.41 244.18 1425.45 244.24 1426.49 244.29 1427.53 244.35 1428.57 244.4 1429.61 244.46 1430.65 244.51 1431.69 244.56 1432.73 244.62 1433.77 244.67 1434.8 244.73 1435.84 244.78 1436.88 244.84 1437.92 244.89 1438.96 244.95 1440 245" stroke="rgba(44, 198, 146, 1)" stroke-width="4"></path><path d="M0.63 280.03Q8.82 280.46 17 280.89 25.19 281.32 33.38 281.74 41.56 282.16 49.75 282.58 57.94 283 66.13 283.41 74.31 283.82 82.5 284.23 90.69 284.62 98.87 285.02 107.06 285.4 115.25 285.78 123.43 286.15 131.62 286.52" stroke="rgba(44, 198, 146, 1)" stroke-width="4"></path><path d="M168.8 288.06Q176.58 288.35 184.36 288.65 192.14 288.92 199.92 289.19 207.7 289.44 215.48 289.69 223.26 289.92 231.04 290.15 238.82 290.36 246.6 290.56 254.38 290.74 262.16 290.92" stroke="rgba(34, 144, 107, 1)" stroke-width="4"></path><path d="M300.6 291.6Q308.36 291.69 316.12 291.78 323.87 291.84 331.63 291.91 339.39 291.94 347.15 291.98 354.9 291.99 362.66 292" stroke="rgba(44, 198, 146, 1)" stroke-width="4"></path><path d="M387.17 291.92Q395.59 291.85 404 291.78 412.42 291.68 420.84 291.58 429.25 291.45 437.67 291.32 446.09 291.16 454.5 290.99 462.92 290.8 471.34 290.61 479.75 290.39 488.17 290.17" stroke="rgba(44, 198, 146, 1)" stroke-width="4"></path><path d="M503.93 289.71Q511.93 289.45 519.92 289.2 527.92 288.92 535.92 288.64 543.91 288.33 551.91 288.03 559.91 287.71 567.9 287.39 575.9 287.05 583.9 286.71 591.89 286.36 599.89 286" stroke="rgba(44, 198, 146, 1)" stroke-width="4"></path><path d="M634.16 284.39Q641.92 284.01 649.68 283.62 657.43 283.23 665.19 282.84 672.95 282.44 680.71 282.05" stroke="rgba(34, 144, 107, 1)" stroke-width="4"></path><path d="M699.4 281.08Q706.98 280.68 714.55 280.29 722.13 279.89 729.71 279.49 737.28 279.1 744.86 278.7 752.44 278.31 760.01 277.92 767.59 277.53 775.17 277.14 782.74 276.76 790.32 276.38 797.9 276 805.47 275.63 813.05 275.26 820.63 274.9 828.2 274.55 835.78 274.19" stroke="rgba(44, 198, 146, 1)" stroke-width="4"></path><path d="M850.35 273.54Q857.87 273.21 865.4 272.89 872.92 272.58 880.44 272.27 887.97 271.98 895.49 271.68 903.01 271.41 910.54 271.13 918.06 270.88 925.59 270.62 933.11 270.39 940.63 270.15 948.16 269.94 955.68 269.72 963.2 269.53 970.73 269.34 978.25 269.17 985.77 269 993.3 268.85 1000.82 268.71" stroke="rgba(44, 198, 146, 1)" stroke-width="4"></path><path d="M1014.91 268.48Q1021.68 268.39 1028.44 268.3 1035.2 268.23 1041.97 268.16 1048.74 268.12 1055.5 268.07" stroke="rgba(44, 198, 146, 1)" stroke-width="4"></path><path d="M1090.39 268.01Q1099.01 268.05 1107.62 268.09 1116.24 268.16 1124.85 268.23 1133.47 268.33 1142.09 268.44 1150.7 268.57 1159.32 268.71 1167.93 268.88 1176.55 269.05 1185.16 269.25 1193.78 269.45" stroke="rgba(34, 144, 107, 1)" stroke-width="4"></path><path d="M1211.39 269.92Q1219.35 270.16 1227.31 270.39 1235.26 270.66 1243.22 270.92 1251.18 271.2 1259.14 271.48 1267.1 271.79 1275.05 272.09 1283.01 272.41 1290.97 272.74 1298.93 273.08 1306.89 273.42 1314.84 273.77 1322.8 274.13 1330.76 274.5 1338.72 274.87 1346.68 275.25 1354.63 275.63 1362.59 276.03 1370.55 276.42" stroke="rgba(34, 144, 107, 1)" stroke-width="4"></path><path d="M1389.71 277.39Q1397.54 277.79 1405.37 278.19 1413.2 278.6 1421.03 279.01 1428.86 279.42 1436.69 279.83" stroke="rgba(34, 144, 107, 1)" stroke-width="4"></path><path d="M14.88 315.78Q22.73 316.19 30.58 316.6 38.43 317 46.28 317.41 54.13 317.81 61.98 318.21 69.83 318.6 77.68 318.99 85.53 319.37 93.38 319.76 101.23 320.13 109.09 320.5 116.94 320.86 124.79 321.22 132.64 321.56 140.49 321.9 148.34 322.23 156.19 322.56 164.04 322.87 171.89 323.18 179.74 323.47 187.59 323.76" stroke="rgba(44, 198, 146, 1)" stroke-width="4"></path><path d="M211.37 324.56Q219.07 324.8 226.77 325.03 234.48 325.24 242.18 325.45 249.88 325.64 257.58 325.82 265.28 325.98 272.98 326.15 280.69 326.28 288.39 326.42 296.09 326.53 303.79 326.64 311.49 326.73 319.19 326.81 326.9 326.87 334.6 326.93 342.3 326.96 350 326.99 357.7 326.99 365.4 327 373.11 326.97 380.81 326.95 388.51 326.9 396.21 326.85" stroke="rgba(34, 144, 107, 1)" stroke-width="4"></path><path d="M416.66 326.64Q424.22 326.53 431.78 326.42 439.35 326.28 446.91 326.15 454.47 325.99 462.03 325.83 469.59 325.65 477.15 325.47 484.72 325.26 492.28 325.06 499.84 324.83 507.4 324.6 514.96 324.35 522.53 324.11 530.09 323.84 537.65 323.57" stroke="rgba(44, 198, 146, 1)" stroke-width="4"></path><path d="M570.17 322.3Q578.2 321.96 586.23 321.61 594.26 321.25 602.29 320.9 610.32 320.52 618.35 320.15 626.38 319.76 634.41 319.38 642.44 318.98 650.47 318.58 658.5 318.18 666.54 317.77 674.57 317.36 682.6 316.95 690.63 316.53 698.66 316.12 706.69 315.7 714.72 315.28 722.75 314.86 730.78 314.44 738.81 314.02 746.84 313.6" stroke="rgba(44, 198, 146, 1)" stroke-width="4"></path><path d="M769.26 312.44Q777.32 312.03 785.38 311.62 793.44 311.22 801.5 310.82 809.55 310.43 817.61 310.04 825.67 309.66 833.73 309.29 841.79 308.92 849.85 308.56" stroke="rgba(34, 144, 107, 1)" stroke-width="4"></path><path d="M885.36 307.07Q893.49 306.76 901.62 306.46 909.75 306.17 917.87 305.88 926 305.61 934.13 305.35 942.26 305.11 950.39 304.87 958.52 304.65 966.64 304.44 974.77 304.25 982.9 304.06 991.03 303.9 999.16 303.74 1007.29 303.61 1015.42 303.47 1023.54 303.37 1031.67 303.27 1039.8 303.19 1047.93 303.12" stroke="rgba(44, 198, 146, 1)" stroke-width="4"></path><path d="M1079.25 303Q1087.6 303.01 1095.96 303.03 1104.31 303.08 1112.66 303.12 1121.02 303.2 1129.37 303.28 1137.72 303.39 1146.07 303.5 1154.43 303.63 1162.78 303.77 1171.13 303.94 1179.49 304.11 1187.84 304.31 1196.19 304.51 1204.55 304.74 1212.9 304.96" stroke="rgba(44, 198, 146, 1)" stroke-width="4"></path><path d="M1249.41 306.13Q1253.01 306.26 1256.61 306.39 1260.2 306.52 1263.8 306.66 1267.4 306.79 1271 306.93" stroke="rgba(34, 144, 107, 1)" stroke-width="4"></path><path d="M1303.68 308.28Q1310.5 308.58 1317.31 308.88 1324.13 309.19 1330.94 309.5 1337.76 309.82 1344.58 310.15 1351.39 310.48 1358.21 310.81 1365.02 311.15 1371.84 311.48 1378.66 311.83 1385.47 312.17 1392.29 312.52 1399.1 312.87 1405.92 313.22 1412.74 313.58 1419.55 313.93 1426.37 314.29 1433.18 314.64 1440 315" stroke="rgba(34, 144, 107, 1)" stroke-width="4"></path><path d="M28.82 351.51Q36.57 351.91 44.32 352.31 52.07 352.7 59.82 353.1 67.56 353.48 75.31 353.87 83.06 354.25 90.81 354.63 98.56 355 106.31 355.37 114.06 355.73 121.81 356.08 129.55 356.42 137.3 356.77 145.05 357.09 152.8 357.42" stroke="rgba(44, 198, 146, 1)" stroke-width="4"></path><path d="M163.02 357.83Q170.55 358.12 178.09 358.41 185.62 358.69 193.15 358.96 200.69 359.21 208.22 359.46 215.75 359.7 223.29 359.93 230.82 360.14 238.35 360.35 245.88 360.54 253.42 360.73 260.95 360.89 268.48 361.06 276.02 361.2 283.55 361.34" stroke="rgba(44, 198, 146, 1)" stroke-width="4"></path><path d="M304.53 361.65Q312.38 361.74 320.24 361.82 328.09 361.88 335.95 361.93 343.8 361.96 351.65 361.99 359.51 361.99 367.36 361.99 375.22 361.97 383.07 361.94" stroke="rgba(34, 144, 107, 1)" stroke-width="4"></path><path d="M418.96 361.61Q428.04 361.47 437.11 361.33 446.19 361.15 455.26 360.98 464.34 360.77 473.41 360.56 482.49 360.32 491.56 360.08" stroke="rgba(34, 144, 107, 1)" stroke-width="4"></path><path d="M511.51 359.47Q519.35 359.21 527.19 358.95 535.03 358.66 542.87 358.38 550.71 358.07 558.56 357.77 566.4 357.45 574.24 357.13 582.08 356.79 589.92 356.45 597.76 356.1 605.6 355.74 613.44 355.38 621.28 355.01 629.12 354.63 636.96 354.25 644.8 353.86 652.64 353.48 660.49 353.08 668.33 352.68 676.17 352.28 684.01 351.88 691.85 351.47 699.69 351.06" stroke="rgba(44, 198, 146, 1)" stroke-width="4"></path><path d="M735.85 349.17Q743.91 348.75 751.97 348.33 760.03 347.92 768.09 347.5 776.15 347.09 784.21 346.68 792.27 346.28 800.33 345.88 808.39 345.49 816.45 345.1 824.51 344.72 832.57 344.34" stroke="rgba(34, 144, 107, 1)" stroke-width="4"></path><path d="M867.08 342.82Q875.09 342.49 883.1 342.16 891.11 341.86 899.11 341.55 907.12 341.26 915.13 340.97 923.14 340.71 931.15 340.44 939.15 340.2 947.16 339.96 955.17 339.74 963.18 339.53 971.19 339.33 979.2 339.14 987.21 338.98 995.21 338.81 1003.22 338.67 1011.23 338.54 1019.24 338.43 1027.25 338.32 1035.26 338.24 1043.26 338.15 1051.27 338.1 1059.28 338.05" stroke="rgba(44, 198, 146, 1)" stroke-width="4"></path><path d="M1089.86 338.01Q1097.48 338.04 1105.09 338.07 1112.71 338.13 1120.33 338.19 1127.95 338.27 1135.56 338.35 1143.18 338.46 1150.8 338.57 1158.42 338.7 1166.03 338.84 1173.65 338.99 1181.27 339.15 1188.89 339.33 1196.5 339.52 1204.12 339.72 1211.74 339.93 1219.36 340.16 1226.97 340.38 1234.59 340.63 1242.21 340.88" stroke="rgba(34, 144, 107, 1)" stroke-width="4"></path><path d="M1257.68 341.43Q1265.34 341.72 1273 342.01 1280.65 342.32 1288.31 342.62 1295.97 342.95 1303.63 343.27" stroke="rgba(44, 198, 146, 1)" stroke-width="4"></path><path d="M1316.45 343.84Q1321.05 344.05 1325.65 344.26 1330.25 344.47 1334.86 344.69 1339.46 344.9 1344.06 345.12" stroke="rgba(34, 144, 107, 1)" stroke-width="4"></path><path d="M1371.2 346.45Q1379.93 346.89 1388.67 347.33 1397.4 347.78 1406.13 348.23 1414.87 348.69 1423.6 349.14" stroke="rgba(44, 198, 146, 1)" stroke-width="4"></path><path d="M33.22 386.73Q41.83 387.18 50.43 387.62 59.04 388.05 67.64 388.49 76.25 388.92 84.86 389.34 93.46 389.76 102.07 390.17 110.67 390.57 119.28 390.97" stroke="rgba(34, 144, 107, 1)" stroke-width="4"></path><path d="M137.58 391.78Q145.6 392.12 153.62 392.45 161.64 392.77 169.66 393.09 177.68 393.39 185.69 393.69 193.71 393.97 201.73 394.25 209.75 394.51 217.77 394.76" stroke="rgba(34, 144, 107, 1)" stroke-width="4"></path><path d="M250.63 395.66Q258.24 395.83 265.86 396 273.47 396.15 281.08 396.3 288.7 396.42 296.31 396.54 303.92 396.64 311.54 396.73 319.15 396.8 326.76 396.87 334.38 396.92 341.99 396.96 349.6 396.98 357.21 397 364.83 396.99 372.44 396.98 380.05 396.95 387.67 396.91 395.28 396.85 402.89 396.79 410.51 396.7 418.12 396.62" stroke="rgba(44, 198, 146, 1)" stroke-width="4"></path><path d="M443.41 396.21Q451.46 396.05 459.5 395.89 467.55 395.7 475.6 395.51 483.64 395.29 491.69 395.07 499.74 394.83 507.78 394.59 515.83 394.33 523.88 394.06 531.92 393.77 539.97 393.49 548.02 393.18 556.06 392.87 564.11 392.54 572.16 392.22 580.2 391.87 588.25 391.52" stroke="rgba(34, 144, 107, 1)" stroke-width="4"></path><path d="M620.12 390.07Q624.1 389.88 628.08 389.69 632.06 389.49 636.03 389.3 640.01 389.1 643.99 388.91" stroke="rgba(34, 144, 107, 1)" stroke-width="4"></path><path d="M661.07 388.05Q669.61 387.62 678.14 387.18 686.68 386.74 695.22 386.3 703.75 385.85 712.29 385.4 720.83 384.96 729.36 384.51 737.9 384.06 746.43 383.62 754.97 383.18 763.51 382.74 772.04 382.3 780.58 381.86" stroke="rgba(34, 144, 107, 1)" stroke-width="4"></path><path d="M795.1 381.14Q803.35 380.73 811.6 380.33 819.85 379.94 828.11 379.55 836.36 379.17 844.61 378.79 852.86 378.43 861.11 378.07" stroke="rgba(44, 198, 146, 1)" stroke-width="4"></path><path d="M888.71 376.94Q892.74 376.79 896.77 376.64 900.8 376.49 904.82 376.34 908.85 376.19 912.88 376.05" stroke="rgba(34, 144, 107, 1)" stroke-width="4"></path><path d="M951.3 374.84Q959.48 374.63 967.67 374.41 975.85 374.22 984.04 374.04 992.22 373.88 1000.41 373.72 1008.59 373.59 1016.77 373.45 1024.96 373.35 1033.14 373.25 1041.33 373.18 1049.51 373.11 1057.7 373.06 1065.88 373.02" stroke="rgba(44, 198, 146, 1)" stroke-width="4"></path><path d="M1081.35 373Q1090.18 373.02 1099.01 373.04 1107.84 373.1 1116.66 373.15 1125.49 373.24 1134.32 373.34 1143.15 373.46 1151.98 373.59" stroke="rgba(34, 144, 107, 1)" stroke-width="4"></path><path d="M1184.88 374.23Q1188.37 374.32 1191.85 374.4 1195.34 374.49 1198.83 374.58 1202.31 374.67 1205.8 374.76" stroke="rgba(34, 144, 107, 1)" stroke-width="4"></path><path d="M1245.27 375.99Q1253.14 376.27 1261 376.55 1268.87 376.85 1276.73 377.16 1284.6 377.48 1292.46 377.8 1300.33 378.14 1308.19 378.47 1316.06 378.83 1323.92 379.18 1331.79 379.55 1339.65 379.91 1347.52 380.29 1355.38 380.67 1363.25 381.06 1371.11 381.45 1378.98 381.84 1386.84 382.24" stroke="rgba(34, 144, 107, 1)" stroke-width="4"></path><path d="M1412.41 383.56Q1413.94 383.64 1415.48 383.72 1417.01 383.8 1418.54 383.88 1420.07 383.96 1421.61 384.04 1423.14 384.12 1424.67 384.2 1426.2 384.28 1427.74 384.36 1429.27 384.44 1430.8 384.52 1432.34 384.6 1433.87 384.68 1435.4 384.76 1436.93 384.84 1438.47 384.92 1440 385" stroke="rgba(44, 198, 146, 1)" stroke-width="4"></path><path d="M28.08 421.47Q37.64 421.96 47.19 422.45 56.75 422.94 66.31 423.42 75.86 423.9 85.42 424.37" stroke="rgba(44, 198, 146, 1)" stroke-width="4"></path><path d="M118.94 425.95Q126.67 426.3 134.41 426.64 142.14 426.97 149.88 427.3 157.61 427.61 165.34 427.93 173.08 428.22 180.81 428.52 188.55 428.79 196.28 429.07 204.02 429.32 211.75 429.58" stroke="rgba(34, 144, 107, 1)" stroke-width="4"></path><path d="M237.45 430.32Q245.53 430.53 253.6 430.73 261.68 430.91 269.75 431.08 277.83 431.23 285.9 431.38 293.98 431.5 302.06 431.62 310.13 431.71 318.21 431.8 326.28 431.86 334.36 431.92" stroke="rgba(34, 144, 107, 1)" stroke-width="4"></path><path d="M366.08 432Q373.83 431.97 381.58 431.95 389.33 431.9 397.07 431.84 404.82 431.76 412.57 431.69" stroke="rgba(34, 144, 107, 1)" stroke-width="4"></path><path d="M438.75 431.3Q446.04 431.16 453.34 431.02 460.63 430.86 467.92 430.69 475.22 430.51 482.51 430.33" stroke="rgba(44, 198, 146, 1)" stroke-width="4"></path><path d="M509.55 429.53Q517.82 429.26 526.09 428.98 534.37 428.69 542.64 428.39 550.91 428.07 559.18 427.75 567.46 427.41 575.73 427.06 584 426.71 592.27 426.35 600.54 425.97 608.82 425.6 617.09 425.21 625.36 424.82" stroke="rgba(44, 198, 146, 1)" stroke-width="4"></path><path d="M664.41 422.88Q673.47 422.42 682.54 421.95 691.6 421.48 700.66 421.01 709.72 420.54 718.79 420.06 727.85 419.59 736.91 419.12" stroke="rgba(34, 144, 107, 1)" stroke-width="4"></path><path d="M773.94 417.2Q775.34 417.13 776.73 417.06 778.13 416.99 779.53 416.92 780.92 416.85 782.32 416.78" stroke="rgba(34, 144, 107, 1)" stroke-width="4"></path><path d="M798.64 415.96Q799.7 415.91 800.76 415.86 801.83 415.81 802.89 415.75 803.95 415.7 805.01 415.65" stroke="rgba(44, 198, 146, 1)" stroke-width="4"></path><path d="M822.9 414.79Q831.51 414.39 840.13 413.99 848.74 413.61 857.36 413.23 865.97 412.87 874.59 412.51 883.2 412.16 891.81 411.82 900.43 411.5 909.04 411.19 917.66 410.89 926.27 410.6" stroke="rgba(34, 144, 107, 1)" stroke-width="4"></path><path d="M957.68 409.67Q966.2 409.46 974.71 409.24 983.23 409.06 991.74 408.88 1000.26 408.73 1008.78 408.57 1017.29 408.45 1025.81 408.33 1034.32 408.25 1042.84 408.16 1051.35 408.1 1059.87 408.05" stroke="rgba(34, 144, 107, 1)" stroke-width="4"></path><path d="M1099.11 408.04Q1107.02 408.09 1114.94 408.14 1122.85 408.22 1130.77 408.29 1138.68 408.4 1146.6 408.5 1154.51 408.64 1162.43 408.77 1170.34 408.93 1178.26 409.09 1186.17 409.27 1194.08 409.46 1202 409.67 1209.91 409.88 1217.83 410.11 1225.74 410.35 1233.66 410.6 1241.57 410.86 1249.49 411.14 1257.4 411.42" stroke="rgba(44, 198, 146, 1)" stroke-width="4"></path><path d="M1273.13 412.01Q1281.19 412.34 1289.25 412.66 1297.32 413.01 1305.38 413.35 1313.44 413.71 1321.5 414.07 1329.57 414.44 1337.63 414.82 1345.69 415.2 1353.75 415.59 1361.81 415.99 1369.88 416.39 1377.94 416.79 1386 417.2 1394.06 417.61 1402.13 418.03 1410.19 418.44 1418.25 418.86" stroke="rgba(44, 198, 146, 1)" stroke-width="4"></path><path d="M8.46 455.44Q15.63 455.82 22.8 456.19 29.97 456.56 37.14 456.94 44.31 457.3 51.48 457.67" stroke="rgba(44, 198, 146, 1)" stroke-width="4"></path><path d="M74.72 458.84Q83.91 459.29 93.09 459.74 102.28 460.18 111.47 460.61 120.66 461.02 129.84 461.44 139.03 461.84 148.22 462.23" stroke="rgba(44, 198, 146, 1)" stroke-width="4"></path><path d="M165.82 462.94Q173.56 463.24 181.3 463.53 189.04 463.81 196.79 464.08 204.53 464.34 212.27 464.59" stroke="rgba(34, 144, 107, 1)" stroke-width="4"></path><path d="M236.17 465.29Q244.8 465.51 253.43 465.73 262.06 465.91 270.7 466.1 279.33 466.26 287.96 466.41" stroke="rgba(34, 144, 107, 1)" stroke-width="4"></path><path d="M321.57 466.83Q329.64 466.89 337.72 466.94 345.79 466.97 353.86 467 361.94 466.99 370.01 466.99 378.08 466.96 386.16 466.92 394.23 466.86 402.3 466.8 410.38 466.7 418.45 466.61 426.53 466.49 434.6 466.37 442.67 466.22 450.75 466.07 458.82 465.89 466.89 465.72 474.97 465.52 483.04 465.31" stroke="rgba(34, 144, 107, 1)" stroke-width="4"></path><path d="M517.34 464.28Q521.56 464.14 525.78 464 530 463.85 534.22 463.7 538.44 463.54 542.66 463.39" stroke="rgba(44, 198, 146, 1)" stroke-width="4"></path><path d="M582.2 461.79Q590.02 461.44 597.85 461.1 605.67 460.74 613.49 460.38 621.31 460.01 629.14 459.63 636.96 459.25 644.78 458.87 652.61 458.48 660.43 458.08 668.25 457.69 676.07 457.29 683.9 456.88 691.72 456.48" stroke="rgba(34, 144, 107, 1)" stroke-width="4"></path><path d="M727.23 454.62Q734.93 454.22 742.64 453.82 750.34 453.42 758.05 453.02 765.75 452.62 773.46 452.23 781.16 451.84 788.87 451.45 796.57 451.07 804.28 450.69 811.98 450.31 819.68 449.94 827.39 449.58 835.09 449.22 842.8 448.88 850.5 448.53 858.21 448.2 865.91 447.87 873.62 447.55 881.32 447.23 889.03 446.94 896.73 446.64 904.44 446.36 912.14 446.08" stroke="rgba(34, 144, 107, 1)" stroke-width="4"></path><path d="M950.48 444.87Q958.72 444.65 966.95 444.43 975.19 444.24 983.42 444.05 991.66 443.89 999.9 443.73 1008.13 443.59 1016.37 443.46 1024.61 443.36 1032.84 443.25 1041.08 443.18 1049.31 443.11 1057.55 443.07 1065.79 443.02 1074.02 443.01 1082.26 443 1090.49 443.02 1098.73 443.04" stroke="rgba(44, 198, 146, 1)" stroke-width="4"></path><path d="M1122.88 443.21Q1126.57 443.25 1130.26 443.29 1133.96 443.33 1137.65 443.38 1141.34 443.43 1145.03 443.48" stroke="rgba(34, 144, 107, 1)" stroke-width="4"></path><path d="M1165.21 443.82Q1166.09 443.84 1166.97 443.85 1167.85 443.87 1168.72 443.89 1169.6 443.91 1170.48 443.92" stroke="rgba(34, 144, 107, 1)" stroke-width="4"></path><path d="M1183.65 444.21Q1185.64 444.25 1187.64 444.3 1189.63 444.35 1191.62 444.4 1193.62 444.45 1195.61 444.49" stroke="rgba(34, 144, 107, 1)" stroke-width="4"></path><path d="M1208.63 444.84Q1216.22 445.06 1223.81 445.29 1231.4 445.53 1238.99 445.77 1246.58 446.04 1254.17 446.3 1261.76 446.58 1269.35 446.87 1276.94 447.17 1284.53 447.47 1292.12 447.79 1299.71 448.1 1307.3 448.44 1314.88 448.77 1322.47 449.12 1330.06 449.46 1337.65 449.82 1345.24 450.18 1352.83 450.55 1360.42 450.92 1368.01 451.29 1375.6 451.67 1383.19 452.06 1390.78 452.44 1398.37 452.83 1405.96 453.22" stroke="rgba(34, 144, 107, 1)" stroke-width="4"></path><path d="M11.16 490.58Q20.41 491.07 29.66 491.55 38.91 492.03 48.16 492.5 57.41 492.97 66.66 493.44" stroke="rgba(34, 144, 107, 1)" stroke-width="4"></path><path d="M84.59 494.33Q92.63 494.72 100.67 495.1 108.7 495.48 116.74 495.85 124.78 496.21 132.82 496.57 140.86 496.92 148.89 497.26 156.93 497.59 164.97 497.91" stroke="rgba(44, 198, 146, 1)" stroke-width="4"></path><path d="M181.58 498.54Q189.53 498.83 197.49 499.11 205.44 499.37 213.39 499.63 221.34 499.86 229.3 500.1 237.25 500.31 245.2 500.53 253.16 500.71 261.11 500.9 269.06 501.06 277.02 501.22 284.97 501.36 292.92 501.49 300.88 501.6 308.83 501.7 316.78 501.78 324.73 501.86 332.69 501.91 340.64 501.96" stroke="rgba(34, 144, 107, 1)" stroke-width="4"></path><path d="M350.67 501.99Q351.83 501.99 353 501.99 354.16 502 355.33 502 356.5 502 357.66 502" stroke="rgba(44, 198, 146, 1)" stroke-width="4"></path><path d="M384.69 501.93Q392.97 501.87 401.24 501.81 409.52 501.71 417.8 501.62 426.08 501.5 434.35 501.37 442.63 501.22 450.91 501.07 459.19 500.89 467.46 500.7 475.74 500.5 484.02 500.29" stroke="rgba(34, 144, 107, 1)" stroke-width="4"></path><path d="M503.61 499.72Q511.94 499.45 520.26 499.18 528.59 498.89 536.92 498.6 545.24 498.28 553.57 497.97" stroke="rgba(34, 144, 107, 1)" stroke-width="4"></path><path d="M568.01 497.39Q569.64 497.32 571.27 497.25 572.89 497.18 574.52 497.12 576.15 497.05 577.78 496.98" stroke="rgba(44, 198, 146, 1)" stroke-width="4"></path><path d="M599.4 496.03Q607.85 495.64 616.29 495.25 624.74 494.84 633.18 494.44 641.63 494.02 650.07 493.6 658.52 493.18 666.97 492.75 675.41 492.32 683.86 491.88 692.3 491.45 700.75 491.01 709.19 490.57 717.64 490.12" stroke="rgba(44, 198, 146, 1)" stroke-width="4"></path><path d="M729.86 489.48Q737.68 489.08 745.5 488.67 753.32 488.26 761.14 487.86 768.96 487.46 776.78 487.06 784.6 486.66 792.42 486.27 800.24 485.89 808.06 485.5" stroke="rgba(44, 198, 146, 1)" stroke-width="4"></path><path d="M829.28 484.49Q836.99 484.14 844.69 483.79 852.4 483.45 860.1 483.11 867.81 482.79 875.52 482.47 883.22 482.16 890.93 481.86 898.63 481.57 906.34 481.28" stroke="rgba(44, 198, 146, 1)" stroke-width="4"></path><path d="M934.37 480.34Q942.31 480.11 950.26 479.87 958.2 479.66 966.15 479.45 974.09 479.27 982.03 479.08 989.98 478.92 997.92 478.76 1005.87 478.63 1013.81 478.5 1021.76 478.39 1029.7 478.29 1037.64 478.21 1045.59 478.14 1053.53 478.09 1061.48 478.04 1069.42 478.02 1077.36 478 1085.31 478.01 1093.25 478.02 1101.2 478.06 1109.14 478.1" stroke="rgba(44, 198, 146, 1)" stroke-width="4"></path><path d="M1143.75 478.46Q1151.41 478.58 1159.07 478.71 1166.73 478.86 1174.39 479 1182.05 479.18 1189.71 479.35 1197.37 479.55 1205.03 479.74 1212.69 479.96 1220.35 480.18" stroke="rgba(34, 144, 107, 1)" stroke-width="4"></path><path d="M1243.34 480.92Q1251.28 481.2 1259.22 481.49 1267.16 481.79 1275.1 482.09 1283.04 482.41 1290.98 482.74 1298.92 483.07 1306.86 483.41 1314.8 483.77 1322.74 484.12 1330.68 484.49 1338.62 484.86 1346.56 485.24 1354.5 485.63 1362.44 486.02 1370.38 486.41 1378.32 486.81 1386.26 487.21 1394.2 487.62 1402.14 488.03 1410.08 488.44 1418.02 488.85 1425.96 489.27 1433.9 489.68" stroke="rgba(34, 144, 107, 1)" stroke-width="4"></path><path d="M11.04 525.58Q19.68 526.03 28.31 526.48 36.95 526.92 45.59 527.37 54.22 527.81 62.86 528.25" stroke="rgba(44, 198, 146, 1)" stroke-width="4"></path><path d="M98.11 529.98Q106.16 530.36 114.2 530.74 122.25 531.1 130.3 531.46 138.35 531.81 146.4 532.15 154.44 532.48 162.49 532.81" stroke="rgba(34, 144, 107, 1)" stroke-width="4"></path><path d="M186.06 533.71Q188.84 533.81 191.61 533.9 194.39 534 197.17 534.1 199.94 534.19 202.72 534.28" stroke="rgba(44, 198, 146, 1)" stroke-width="4"></path><path d="M231.41 535.16Q239.88 535.38 248.34 535.6 256.81 535.8 265.28 535.99 273.75 536.15 282.21 536.32 290.68 536.45 299.15 536.58" stroke="rgba(44, 198, 146, 1)" stroke-width="4"></path><path d="M327.08 536.88Q335.18 536.92 343.28 536.97 351.38 536.98 359.48 537 367.58 536.99 375.67 536.97 383.77 536.93 391.87 536.88 399.97 536.81 408.07 536.74 416.17 536.63 424.27 536.53 432.37 536.4 440.47 536.27 448.57 536.11 456.67 535.95 464.76 535.76 472.86 535.57 480.96 535.36 489.06 535.15 497.16 534.91 505.26 534.67" stroke="rgba(44, 198, 146, 1)" stroke-width="4"></path><path d="M529.2 533.88Q535.08 533.66 540.95 533.45 546.83 533.23 552.71 533 558.58 532.77 564.46 532.53" stroke="rgba(34, 144, 107, 1)" stroke-width="4"></path><path d="M596.33 531.17Q605.84 530.73 615.35 530.29 624.87 529.84 634.38 529.38 643.89 528.91 653.4 528.44" stroke="rgba(44, 198, 146, 1)" stroke-width="4"></path><path d="M685.74 526.79Q693.26 526.4 700.77 526.01 708.29 525.61 715.8 525.22 723.32 524.83 730.84 524.43 738.35 524.04 745.87 523.65 753.39 523.26 760.9 522.87 768.42 522.49 775.93 522.1 783.45 521.72 790.97 521.34 798.48 520.97 806 520.6 813.51 520.24 821.03 519.88" stroke="rgba(34, 144, 107, 1)" stroke-width="4"></path><path d="M848.62 518.61Q857.23 518.24 865.85 517.87 874.46 517.52 883.07 517.16 891.68 516.83 900.3 516.5 908.91 516.2 917.52 515.89 926.13 515.61 934.75 515.33 943.36 515.08 951.97 514.82" stroke="rgba(34, 144, 107, 1)" stroke-width="4"></path><path d="M980.46 514.11Q988.97 513.94 997.48 513.77 1006 513.63 1014.51 513.49 1023.02 513.38 1031.53 513.27 1040.04 513.19 1048.56 513.11 1057.07 513.07 1065.58 513.02" stroke="rgba(34, 144, 107, 1)" stroke-width="4"></path><path d="M1095.74 513.03Q1102.87 513.07 1110 513.1 1117.13 513.16 1124.25 513.22 1131.38 513.31 1138.51 513.39" stroke="rgba(34, 144, 107, 1)" stroke-width="4"></path><path d="M1171.9 513.95Q1180.63 514.15 1189.35 514.34 1198.08 514.57 1206.8 514.79 1215.53 515.05 1224.26 515.3 1232.98 515.58 1241.71 515.87 1250.43 516.17 1259.16 516.48 1267.88 516.82 1276.61 517.15" stroke="rgba(44, 198, 146, 1)" stroke-width="4"></path><path d="M1315.74 518.81Q1323.24 519.15 1330.74 519.49 1338.24 519.85 1345.74 520.2 1353.24 520.57 1360.74 520.93 1368.24 521.31 1375.74 521.68 1383.24 522.06 1390.74 522.44" stroke="rgba(34, 144, 107, 1)" stroke-width="4"></path><path d="M1414.34 523.66Q1416.91 523.79 1419.47 523.93 1422.04 524.06 1424.6 524.19 1427.17 524.33 1429.74 524.46 1432.3 524.6 1434.87 524.73 1437.43 524.87 1440 525" stroke="rgba(44, 198, 146, 1)" stroke-width="4"></path></g><defs><clipPath id="SvgjsClipPath1110"><rect width="1440" height="560" x="0" y="0"></rect></clipPath></defs></svg>