<svg xmlns="http://www.w3.org/2000/svg" xmlns:xlink="http://www.w3.org/1999/xlink" zoomAndPan="magnify" preserveAspectRatio="xMidYMid meet" version="1.2" viewBox="0.99 27.94 493.05 94.16"><defs><clipPath id="c30bc017bf"><path d="M 0.933594 27.664062 L 139 27.664062 L 139 123 L 0.933594 123 Z M 0.933594 27.664062 "/></clipPath></defs><g id="95f24827bf"><g style="fill:#000000;fill-opacity:1;"><g transform="translate(164.439283, 97.960521)"><path style="stroke:none" d="M 28.1875 0 L 18.390625 -17.78125 L 15.640625 -17.78125 L 15.640625 0 L 4.15625 0 L 4.15625 -47.109375 L 23.421875 -47.109375 C 27.128906 -47.109375 30.289062 -46.457031 32.90625 -45.15625 C 35.53125 -43.863281 37.488281 -42.085938 38.78125 -39.828125 C 40.082031 -37.566406 40.734375 -35.050781 40.734375 -32.28125 C 40.734375 -29.144531 39.847656 -26.347656 38.078125 -23.890625 C 36.316406 -21.429688 33.710938 -19.6875 30.265625 -18.65625 L 41.140625 0 Z M 15.640625 -25.90625 L 22.75 -25.90625 C 24.851562 -25.90625 26.429688 -26.414062 27.484375 -27.4375 C 28.535156 -28.46875 29.0625 -29.925781 29.0625 -31.8125 C 29.0625 -33.601562 28.535156 -35.007812 27.484375 -36.03125 C 26.429688 -37.0625 24.851562 -37.578125 22.75 -37.578125 L 15.640625 -37.578125 Z M 15.640625 -25.90625 "/></g></g><g style="fill:#000000;fill-opacity:1;"><g transform="translate(203.356323, 97.960521)"><path style="stroke:none" d="M 21.203125 0.53125 C 17.535156 0.53125 14.234375 -0.25 11.296875 -1.8125 C 8.367188 -3.375 6.066406 -5.609375 4.390625 -8.515625 C 2.710938 -11.429688 1.875 -14.832031 1.875 -18.71875 C 1.875 -22.570312 2.722656 -25.960938 4.421875 -28.890625 C 6.128906 -31.816406 8.457031 -34.0625 11.40625 -35.625 C 14.363281 -37.195312 17.675781 -37.984375 21.34375 -37.984375 C 25.007812 -37.984375 28.316406 -37.195312 31.265625 -35.625 C 34.222656 -34.0625 36.550781 -31.816406 38.25 -28.890625 C 39.945312 -25.960938 40.796875 -22.570312 40.796875 -18.71875 C 40.796875 -14.875 39.9375 -11.484375 38.21875 -8.546875 C 36.5 -5.617188 34.148438 -3.375 31.171875 -1.8125 C 28.191406 -0.25 24.867188 0.53125 21.203125 0.53125 Z M 21.203125 -9.390625 C 23.398438 -9.390625 25.269531 -10.195312 26.8125 -11.8125 C 28.351562 -13.425781 29.125 -15.726562 29.125 -18.71875 C 29.125 -21.71875 28.375 -24.019531 26.875 -25.625 C 25.375 -27.238281 23.53125 -28.046875 21.34375 -28.046875 C 19.101562 -28.046875 17.242188 -27.25 15.765625 -25.65625 C 14.296875 -24.070312 13.5625 -21.757812 13.5625 -18.71875 C 13.5625 -15.726562 14.285156 -13.425781 15.734375 -11.8125 C 17.191406 -10.195312 19.015625 -9.390625 21.203125 -9.390625 Z M 21.203125 -9.390625 "/></g></g><g style="fill:#000000;fill-opacity:1;"><g transform="translate(241.266881, 97.960521)"><path style="stroke:none" d="M 42.40625 -37.453125 L 18.921875 17.78125 L 6.578125 17.78125 L 15.171875 -1.28125 L -0.0625 -37.453125 L 12.75 -37.453125 L 21.40625 -14.03125 L 30 -37.453125 Z M 42.40625 -37.453125 "/></g></g><g style="fill:#000000;fill-opacity:1;"><g transform="translate(278.841938, 97.960521)"><path style="stroke:none" d="M 1.875 -18.796875 C 1.875 -22.640625 2.597656 -26.015625 4.046875 -28.921875 C 5.503906 -31.828125 7.484375 -34.0625 9.984375 -35.625 C 12.492188 -37.195312 15.296875 -37.984375 18.390625 -37.984375 C 21.023438 -37.984375 23.335938 -37.445312 25.328125 -36.375 C 27.316406 -35.300781 28.851562 -33.890625 29.9375 -32.140625 L 29.9375 -37.453125 L 41.40625 -37.453125 L 41.40625 0 L 29.9375 0 L 29.9375 -5.296875 C 28.8125 -3.554688 27.253906 -2.148438 25.265625 -1.078125 C 23.273438 -0.00390625 20.960938 0.53125 18.328125 0.53125 C 15.273438 0.53125 12.492188 -0.257812 9.984375 -1.84375 C 7.484375 -3.4375 5.503906 -5.695312 4.046875 -8.625 C 2.597656 -11.550781 1.875 -14.941406 1.875 -18.796875 Z M 29.9375 -18.71875 C 29.9375 -21.582031 29.140625 -23.84375 27.546875 -25.5 C 25.960938 -27.15625 24.03125 -27.984375 21.75 -27.984375 C 19.46875 -27.984375 17.53125 -27.164062 15.9375 -25.53125 C 14.351562 -23.894531 13.5625 -21.648438 13.5625 -18.796875 C 13.5625 -15.929688 14.351562 -13.660156 15.9375 -11.984375 C 17.53125 -10.304688 19.46875 -9.46875 21.75 -9.46875 C 24.03125 -9.46875 25.960938 -10.289062 27.546875 -11.9375 C 29.140625 -13.59375 29.9375 -15.851562 29.9375 -18.71875 Z M 29.9375 -18.71875 "/></g></g><g style="fill:#000000;fill-opacity:1;"><g transform="translate(319.57066, 97.960521)"><path style="stroke:none" d="M 15.640625 -49.65625 L 15.640625 0 L 4.15625 0 L 4.15625 -49.65625 Z M 15.640625 -49.65625 "/></g></g><g style="fill:#000000;fill-opacity:1;"><g transform="translate(334.542731, 97.960521)"><path style="stroke:none" d=""/></g></g><g style="fill:#000000;fill-opacity:1;"><g transform="translate(347.626612, 97.960521)"><path style="stroke:none" d="M 2.890625 -23.421875 C 2.890625 -27.984375 3.914062 -32.085938 5.96875 -35.734375 C 8.03125 -39.378906 10.835938 -42.226562 14.390625 -44.28125 C 17.953125 -46.34375 21.898438 -47.375 26.234375 -47.375 C 31.335938 -47.375 35.789062 -46.144531 39.59375 -43.6875 C 43.394531 -41.226562 46.171875 -37.738281 47.921875 -33.21875 L 40.59375 -33.21875 C 39.300781 -36.039062 37.4375 -38.210938 35 -39.734375 C 32.5625 -41.253906 29.640625 -42.015625 26.234375 -42.015625 C 22.972656 -42.015625 20.046875 -41.253906 17.453125 -39.734375 C 14.859375 -38.210938 12.820312 -36.050781 11.34375 -33.25 C 9.863281 -30.457031 9.125 -27.179688 9.125 -23.421875 C 9.125 -19.703125 9.863281 -16.445312 11.34375 -13.65625 C 12.820312 -10.863281 14.859375 -8.707031 17.453125 -7.1875 C 20.046875 -5.664062 22.972656 -4.90625 26.234375 -4.90625 C 29.640625 -4.90625 32.5625 -5.648438 35 -7.140625 C 37.4375 -8.640625 39.300781 -10.800781 40.59375 -13.625 L 47.921875 -13.625 C 46.171875 -9.144531 43.394531 -5.6875 39.59375 -3.25 C 35.789062 -0.8125 31.335938 0.40625 26.234375 0.40625 C 21.898438 0.40625 17.953125 -0.609375 14.390625 -2.640625 C 10.835938 -4.679688 8.03125 -7.515625 5.96875 -11.140625 C 3.914062 -14.765625 2.890625 -18.859375 2.890625 -23.421875 Z M 2.890625 -23.421875 "/></g></g><g style="fill:#000000;fill-opacity:1;"><g transform="translate(394.595543, 97.960521)"><path style="stroke:none" d="M 2.890625 -18.515625 C 2.890625 -22.273438 3.648438 -25.578125 5.171875 -28.421875 C 6.691406 -31.265625 8.78125 -33.46875 11.4375 -35.03125 C 14.101562 -36.59375 17.066406 -37.375 20.328125 -37.375 C 23.554688 -37.375 26.351562 -36.679688 28.71875 -35.296875 C 31.09375 -33.910156 32.863281 -32.164062 34.03125 -30.0625 L 34.03125 -36.78125 L 40.203125 -36.78125 L 40.203125 0 L 34.03125 0 L 34.03125 -6.84375 C 32.820312 -4.695312 31.019531 -2.914062 28.625 -1.5 C 26.226562 -0.09375 23.441406 0.609375 20.265625 0.609375 C 17.003906 0.609375 14.050781 -0.195312 11.40625 -1.8125 C 8.769531 -3.425781 6.691406 -5.6875 5.171875 -8.59375 C 3.648438 -11.5 2.890625 -14.804688 2.890625 -18.515625 Z M 34.03125 -18.453125 C 34.03125 -21.222656 33.46875 -23.640625 32.34375 -25.703125 C 31.226562 -27.765625 29.71875 -29.34375 27.8125 -30.4375 C 25.914062 -31.53125 23.828125 -32.078125 21.546875 -32.078125 C 19.265625 -32.078125 17.179688 -31.539062 15.296875 -30.46875 C 13.421875 -29.394531 11.921875 -27.828125 10.796875 -25.765625 C 9.679688 -23.710938 9.125 -21.296875 9.125 -18.515625 C 9.125 -15.703125 9.679688 -13.253906 10.796875 -11.171875 C 11.921875 -9.085938 13.421875 -7.5 15.296875 -6.40625 C 17.179688 -5.3125 19.265625 -4.765625 21.546875 -4.765625 C 23.828125 -4.765625 25.914062 -5.3125 27.8125 -6.40625 C 29.71875 -7.5 31.226562 -9.085938 32.34375 -11.171875 C 33.46875 -13.253906 34.03125 -15.679688 34.03125 -18.453125 Z M 34.03125 -18.453125 "/></g></g><g style="fill:#000000;fill-opacity:1;"><g transform="translate(435.12296, 97.960521)"><path style="stroke:none" d="M 11.28125 -30.796875 C 12.351562 -32.898438 13.882812 -34.535156 15.875 -35.703125 C 17.863281 -36.867188 20.289062 -37.453125 23.15625 -37.453125 L 23.15625 -31.140625 L 21.546875 -31.140625 C 14.703125 -31.140625 11.28125 -27.425781 11.28125 -20 L 11.28125 0 L 5.171875 0 L 5.171875 -36.78125 L 11.28125 -36.78125 Z M 11.28125 -30.796875 "/></g></g><g style="fill:#000000;fill-opacity:1;"><g transform="translate(455.319347, 97.960521)"><path style="stroke:none" d="M 38.71875 -19.796875 C 38.71875 -18.628906 38.648438 -17.398438 38.515625 -16.109375 L 9.125 -16.109375 C 9.351562 -12.484375 10.59375 -9.648438 12.84375 -7.609375 C 15.101562 -5.578125 17.847656 -4.5625 21.078125 -4.5625 C 23.710938 -4.5625 25.910156 -5.175781 27.671875 -6.40625 C 29.441406 -7.632812 30.6875 -9.28125 31.40625 -11.34375 L 37.984375 -11.34375 C 36.992188 -7.8125 35.023438 -4.9375 32.078125 -2.71875 C 29.128906 -0.5 25.460938 0.609375 21.078125 0.609375 C 17.585938 0.609375 14.460938 -0.171875 11.703125 -1.734375 C 8.953125 -3.304688 6.796875 -5.535156 5.234375 -8.421875 C 3.671875 -11.304688 2.890625 -14.648438 2.890625 -18.453125 C 2.890625 -22.253906 3.648438 -25.585938 5.171875 -28.453125 C 6.691406 -31.316406 8.828125 -33.519531 11.578125 -35.0625 C 14.328125 -36.601562 17.492188 -37.375 21.078125 -37.375 C 24.566406 -37.375 27.648438 -36.613281 30.328125 -35.09375 C 33.015625 -33.570312 35.082031 -31.476562 36.53125 -28.8125 C 37.988281 -26.15625 38.71875 -23.148438 38.71875 -19.796875 Z M 32.40625 -21.078125 C 32.40625 -23.398438 31.890625 -25.398438 30.859375 -27.078125 C 29.835938 -28.753906 28.441406 -30.03125 26.671875 -30.90625 C 24.910156 -31.78125 22.953125 -32.21875 20.796875 -32.21875 C 17.710938 -32.21875 15.082031 -31.234375 12.90625 -29.265625 C 10.738281 -27.296875 9.5 -24.566406 9.1875 -21.078125 Z M 32.40625 -21.078125 "/></g></g><g clip-rule="nonzero" clip-path="url(#c30bc017bf)"><path style=" stroke:none;fill-rule:nonzero;fill:#008000;fill-opacity:1;" d="M 137.101562 88.8125 C 134.121094 87.917969 131.089844 87.140625 128.203125 85.996094 C 126.589844 85.359375 126.203125 85.917969 125.679688 87.21875 C 120.476562 100.101562 110.871094 107.578125 97.183594 109.273438 C 87.175781 110.519531 78.058594 107.617188 70.628906 100.726562 C 65.320312 95.800781 60.523438 90.324219 55.457031 85.132812 C 54.75 84.398438 55.074219 84.007812 55.664062 83.527344 C 57.648438 81.933594 59.636719 80.339844 61.582031 78.707031 C 64.921875 75.898438 68.566406 73.421875 71.136719 69.789062 C 72.242188 68.480469 72.957031 66.945312 73.703125 65.433594 C 76.550781 59.082031 76.960938 52.613281 74.792969 46.089844 C 76.082031 45.117188 77.625 44.289062 79.097656 43.625 C 79.253906 43.601562 79.433594 43.542969 79.65625 43.441406 C 80.890625 42.878906 82.152344 42.390625 83.441406 41.988281 C 83.441406 41.988281 83.441406 41.988281 83.449219 41.988281 C 85.589844 41.320312 87.792969 40.875 90.042969 40.679688 C 98.457031 39.933594 106.234375 41.863281 113.207031 46.730469 C 119.214844 50.921875 123.414062 56.527344 125.976562 63.367188 C 126.230469 64.054688 126.410156 64.617188 127.355469 64.3125 C 130.683594 63.238281 134.027344 62.207031 137.355469 61.144531 C 137.761719 61.019531 138.15625 60.816406 138.226562 60.332031 C 138.125 60.085938 138.019531 59.867188 137.945312 59.644531 C 134.796875 50.410156 129.195312 42.960938 121.417969 37.136719 C 115.914062 33.023438 109.765625 30.257812 103.050781 28.929688 C 98.332031 28 93.570312 27.648438 88.722656 28.214844 C 86.511719 28.472656 84.347656 28.863281 82.21875 29.382812 L 82.226562 29.378906 C 82.226562 29.378906 74.132812 31.164062 67.835938 35.257812 C 63.125 30.855469 56.6875 28.085938 49.421875 28.15625 C 33.886719 28.300781 18.347656 28.210938 2.808594 28.15625 C 1.316406 28.148438 0.984375 28.574219 0.988281 30.015625 C 1.03125 53.003906 1.023438 75.996094 1.023438 98.988281 C 1.023438 106.15625 1.042969 113.320312 0.988281 120.484375 L 13.664062 120.484375 C 13.664062 120.34375 13.664062 120.195312 13.664062 120.027344 C 13.65625 94.148438 13.671875 68.269531 13.628906 42.390625 C 13.625 40.996094 14.015625 40.617188 15.398438 40.628906 C 26.703125 40.679688 38.003906 40.660156 49.3125 40.648438 C 51.210938 40.644531 53.03125 40.984375 54.8125 41.628906 C 61.0625 43.882812 64.8125 51.085938 63.214844 57.464844 C 62.324219 61.023438 60.226562 63.601562 57.480469 65.839844 C 50.578125 71.464844 43.683594 77.109375 36.78125 82.746094 L 48.507812 96.03125 C 51.992188 99.703125 55.496094 103.359375 58.976562 107.046875 C 66.597656 115.125 75.898438 120.050781 86.863281 121.601562 C 97.945312 123.171875 108.410156 121.070312 117.964844 115.207031 C 127.53125 109.339844 134.238281 101.066406 137.957031 90.414062 C 138.332031 89.363281 137.980469 89.074219 137.101562 88.8125 Z M 137.101562 88.8125 "/></g></g></svg>