<svg xmlns="http://www.w3.org/2000/svg" xmlns:xlink="http://www.w3.org/1999/xlink" zoomAndPan="magnify" preserveAspectRatio="xMidYMid meet" version="1.2" viewBox="0.02 25.07 289.26 52.73"><defs><clipPath id="666e285be6"><path d="M 0 26 L 68.890625 26 L 68.890625 73.886719 L 0 73.886719 Z M 0 26 "/></clipPath></defs><g id="5f1c300f06"><g clip-rule="nonzero" clip-path="url(#666e285be6)"><path style=" stroke:none;fill-rule:nonzero;fill:#000000;fill-opacity:1;" d="M 68.246094 56.636719 C 66.753906 56.191406 65.234375 55.800781 63.785156 55.226562 C 62.976562 54.90625 62.785156 55.1875 62.519531 55.839844 C 59.914062 62.300781 55.097656 66.050781 48.238281 66.902344 C 43.222656 67.527344 38.652344 66.070312 34.929688 62.617188 C 32.265625 60.144531 29.863281 57.398438 27.324219 54.792969 C 26.96875 54.425781 27.132812 54.230469 27.429688 53.988281 C 28.421875 53.1875 29.417969 52.390625 30.394531 51.570312 C 32.070312 50.160156 33.894531 48.917969 35.183594 47.097656 C 35.738281 46.441406 36.09375 45.671875 36.46875 44.910156 C 37.898438 41.722656 38.101562 38.480469 37.015625 35.207031 C 37.664062 34.71875 38.433594 34.304688 39.171875 33.972656 C 39.253906 33.960938 39.339844 33.929688 39.453125 33.878906 C 40.070312 33.59375 40.703125 33.351562 41.351562 33.148438 C 41.351562 33.148438 41.351562 33.148438 41.355469 33.148438 C 42.429688 32.8125 43.53125 32.589844 44.660156 32.492188 C 48.875 32.121094 52.773438 33.085938 56.269531 35.527344 C 59.28125 37.632812 61.382812 40.445312 62.667969 43.875 C 62.796875 44.21875 62.886719 44.503906 63.359375 44.347656 C 65.027344 43.808594 66.703125 43.292969 68.371094 42.761719 C 68.578125 42.695312 68.773438 42.59375 68.808594 42.351562 C 68.757812 42.226562 68.707031 42.117188 68.667969 42.007812 C 67.089844 37.375 64.285156 33.636719 60.386719 30.714844 C 57.625 28.652344 54.546875 27.265625 51.179688 26.597656 C 48.8125 26.132812 46.425781 25.953125 44 26.242188 C 42.890625 26.371094 41.804688 26.566406 40.738281 26.824219 L 40.742188 26.824219 C 40.742188 26.824219 36.6875 27.71875 33.53125 29.773438 C 31.167969 27.566406 27.941406 26.175781 24.300781 26.210938 C 16.511719 26.28125 8.722656 26.238281 0.9375 26.210938 C 0.1875 26.207031 0.0195312 26.417969 0.0234375 27.140625 C 0.046875 38.675781 0.0429688 50.210938 0.0429688 61.746094 C 0.0429688 65.339844 0.0507812 68.933594 0.0234375 72.527344 L 6.375 72.527344 C 6.375 72.457031 6.375 72.382812 6.375 72.296875 C 6.375 59.316406 6.382812 46.332031 6.359375 33.351562 C 6.355469 32.652344 6.554688 32.460938 7.246094 32.46875 C 12.914062 32.492188 18.578125 32.484375 24.246094 32.476562 C 25.195312 32.476562 26.109375 32.644531 27 32.96875 C 30.136719 34.101562 32.011719 37.710938 31.210938 40.914062 C 30.765625 42.699219 29.714844 43.992188 28.339844 45.117188 C 24.878906 47.9375 21.421875 50.769531 17.964844 53.597656 L 23.839844 60.261719 C 25.585938 62.101562 27.34375 63.9375 29.089844 65.785156 C 32.910156 69.839844 37.570312 72.308594 43.066406 73.085938 C 48.621094 73.875 53.867188 72.820312 58.652344 69.878906 C 63.449219 66.9375 66.8125 62.785156 68.675781 57.441406 C 68.863281 56.914062 68.6875 56.769531 68.246094 56.636719 Z M 68.246094 56.636719 "/></g><g style="fill:#000000;fill-opacity:1;"><g transform="translate(95.094936, 73.611)"><path style="stroke:none" d="M 0.6875 -5.625 C 0.6875 -6.71875 0.929688 -7.703125 1.421875 -8.578125 C 1.921875 -9.460938 2.597656 -10.148438 3.453125 -10.640625 C 4.304688 -11.140625 5.257812 -11.390625 6.3125 -11.390625 C 7.53125 -11.390625 8.597656 -11.09375 9.515625 -10.5 C 10.429688 -9.90625 11.097656 -9.066406 11.515625 -7.984375 L 9.75 -7.984375 C 9.4375 -8.660156 8.988281 -9.179688 8.40625 -9.546875 C 7.820312 -9.910156 7.125 -10.09375 6.3125 -10.09375 C 5.519531 -10.09375 4.8125 -9.910156 4.1875 -9.546875 C 3.5625 -9.179688 3.070312 -8.660156 2.71875 -7.984375 C 2.363281 -7.316406 2.1875 -6.53125 2.1875 -5.625 C 2.1875 -4.738281 2.363281 -3.957031 2.71875 -3.28125 C 3.070312 -2.613281 3.5625 -2.09375 4.1875 -1.71875 C 4.8125 -1.351562 5.519531 -1.171875 6.3125 -1.171875 C 7.125 -1.171875 7.820312 -1.347656 8.40625 -1.703125 C 8.988281 -2.066406 9.4375 -2.585938 9.75 -3.265625 L 11.515625 -3.265625 C 11.097656 -2.191406 10.429688 -1.363281 9.515625 -0.78125 C 8.597656 -0.195312 7.53125 0.09375 6.3125 0.09375 C 5.257812 0.09375 4.304688 -0.148438 3.453125 -0.640625 C 2.597656 -1.128906 1.921875 -1.804688 1.421875 -2.671875 C 0.929688 -3.546875 0.6875 -4.53125 0.6875 -5.625 Z M 0.6875 -5.625 "/></g></g><g style="fill:#000000;fill-opacity:1;"><g transform="translate(107.535918, 73.611)"><path style="stroke:none" d="M 5.09375 0.140625 C 4.269531 0.140625 3.519531 -0.046875 2.84375 -0.421875 C 2.175781 -0.796875 1.648438 -1.328125 1.265625 -2.015625 C 0.878906 -2.710938 0.6875 -3.519531 0.6875 -4.4375 C 0.6875 -5.332031 0.882812 -6.128906 1.28125 -6.828125 C 1.675781 -7.523438 2.210938 -8.054688 2.890625 -8.421875 C 3.566406 -8.796875 4.320312 -8.984375 5.15625 -8.984375 C 6 -8.984375 6.757812 -8.796875 7.4375 -8.421875 C 8.113281 -8.054688 8.644531 -7.53125 9.03125 -6.84375 C 9.425781 -6.15625 9.625 -5.351562 9.625 -4.4375 C 9.625 -3.519531 9.421875 -2.710938 9.015625 -2.015625 C 8.617188 -1.328125 8.078125 -0.796875 7.390625 -0.421875 C 6.703125 -0.046875 5.9375 0.140625 5.09375 0.140625 Z M 5.09375 -1.140625 C 5.625 -1.140625 6.117188 -1.265625 6.578125 -1.515625 C 7.035156 -1.765625 7.40625 -2.132812 7.6875 -2.625 C 7.976562 -3.125 8.125 -3.726562 8.125 -4.4375 C 8.125 -5.144531 7.984375 -5.742188 7.703125 -6.234375 C 7.421875 -6.734375 7.054688 -7.101562 6.609375 -7.34375 C 6.160156 -7.582031 5.671875 -7.703125 5.140625 -7.703125 C 4.609375 -7.703125 4.117188 -7.582031 3.671875 -7.34375 C 3.222656 -7.101562 2.863281 -6.734375 2.59375 -6.234375 C 2.320312 -5.742188 2.1875 -5.144531 2.1875 -4.4375 C 2.1875 -3.71875 2.316406 -3.109375 2.578125 -2.609375 C 2.847656 -2.117188 3.203125 -1.75 3.640625 -1.5 C 4.085938 -1.257812 4.570312 -1.140625 5.09375 -1.140625 Z M 5.09375 -1.140625 "/></g></g><g style="fill:#000000;fill-opacity:1;"><g transform="translate(117.849688, 73.611)"><path style="stroke:none" d="M 5.546875 -9 C 6.617188 -9 7.488281 -8.671875 8.15625 -8.015625 C 8.820312 -7.367188 9.15625 -6.429688 9.15625 -5.203125 L 9.15625 0 L 7.703125 0 L 7.703125 -5 C 7.703125 -5.882812 7.484375 -6.554688 7.046875 -7.015625 C 6.609375 -7.484375 6.003906 -7.71875 5.234375 -7.71875 C 4.460938 -7.71875 3.847656 -7.472656 3.390625 -6.984375 C 2.929688 -6.503906 2.703125 -5.804688 2.703125 -4.890625 L 2.703125 0 L 1.234375 0 L 1.234375 -8.84375 L 2.703125 -8.84375 L 2.703125 -7.578125 C 2.992188 -8.023438 3.390625 -8.375 3.890625 -8.625 C 4.390625 -8.875 4.941406 -9 5.546875 -9 Z M 5.546875 -9 "/></g></g><g style="fill:#000000;fill-opacity:1;"><g transform="translate(128.163458, 73.611)"><path style="stroke:none" d="M 3.03125 -7.625 L 3.03125 -2.421875 C 3.03125 -1.992188 3.117188 -1.6875 3.296875 -1.5 C 3.484375 -1.320312 3.800781 -1.234375 4.25 -1.234375 L 5.34375 -1.234375 L 5.34375 0 L 4.015625 0 C 3.203125 0 2.585938 -0.1875 2.171875 -0.5625 C 1.765625 -0.9375 1.5625 -1.554688 1.5625 -2.421875 L 1.5625 -7.625 L 0.421875 -7.625 L 0.421875 -8.84375 L 1.5625 -8.84375 L 1.5625 -11.0625 L 3.03125 -11.0625 L 3.03125 -8.84375 L 5.34375 -8.84375 L 5.34375 -7.625 Z M 3.03125 -7.625 "/></g></g><g style="fill:#000000;fill-opacity:1;"><g transform="translate(134.029413, 73.611)"><path style="stroke:none" d="M 2.703125 -7.40625 C 2.960938 -7.90625 3.332031 -8.296875 3.8125 -8.578125 C 4.289062 -8.859375 4.875 -9 5.5625 -9 L 5.5625 -7.484375 L 5.171875 -7.484375 C 3.523438 -7.484375 2.703125 -6.59375 2.703125 -4.8125 L 2.703125 0 L 1.234375 0 L 1.234375 -8.84375 L 2.703125 -8.84375 Z M 2.703125 -7.40625 "/></g></g><g style="fill:#000000;fill-opacity:1;"><g transform="translate(140.040405, 73.611)"><path style="stroke:none" d="M 5.09375 0.140625 C 4.269531 0.140625 3.519531 -0.046875 2.84375 -0.421875 C 2.175781 -0.796875 1.648438 -1.328125 1.265625 -2.015625 C 0.878906 -2.710938 0.6875 -3.519531 0.6875 -4.4375 C 0.6875 -5.332031 0.882812 -6.128906 1.28125 -6.828125 C 1.675781 -7.523438 2.210938 -8.054688 2.890625 -8.421875 C 3.566406 -8.796875 4.320312 -8.984375 5.15625 -8.984375 C 6 -8.984375 6.757812 -8.796875 7.4375 -8.421875 C 8.113281 -8.054688 8.644531 -7.53125 9.03125 -6.84375 C 9.425781 -6.15625 9.625 -5.351562 9.625 -4.4375 C 9.625 -3.519531 9.421875 -2.710938 9.015625 -2.015625 C 8.617188 -1.328125 8.078125 -0.796875 7.390625 -0.421875 C 6.703125 -0.046875 5.9375 0.140625 5.09375 0.140625 Z M 5.09375 -1.140625 C 5.625 -1.140625 6.117188 -1.265625 6.578125 -1.515625 C 7.035156 -1.765625 7.40625 -2.132812 7.6875 -2.625 C 7.976562 -3.125 8.125 -3.726562 8.125 -4.4375 C 8.125 -5.144531 7.984375 -5.742188 7.703125 -6.234375 C 7.421875 -6.734375 7.054688 -7.101562 6.609375 -7.34375 C 6.160156 -7.582031 5.671875 -7.703125 5.140625 -7.703125 C 4.609375 -7.703125 4.117188 -7.582031 3.671875 -7.34375 C 3.222656 -7.101562 2.863281 -6.734375 2.59375 -6.234375 C 2.320312 -5.742188 2.1875 -5.144531 2.1875 -4.4375 C 2.1875 -3.71875 2.316406 -3.109375 2.578125 -2.609375 C 2.847656 -2.117188 3.203125 -1.75 3.640625 -1.5 C 4.085938 -1.257812 4.570312 -1.140625 5.09375 -1.140625 Z M 5.09375 -1.140625 "/></g></g><g style="fill:#000000;fill-opacity:1;"><g transform="translate(150.354176, 73.611)"><path style="stroke:none" d="M 2.703125 -11.9375 L 2.703125 0 L 1.234375 0 L 1.234375 -11.9375 Z M 2.703125 -11.9375 "/></g></g><g style="fill:#000000;fill-opacity:1;"><g transform="translate(154.318535, 73.611)"><path style="stroke:none" d=""/></g></g><g style="fill:#000000;fill-opacity:1;"><g transform="translate(158.621313, 73.611)"><path style="stroke:none" d="M 9.90625 -11.234375 L 9.90625 0 L 8.4375 0 L 8.4375 -5.09375 L 2.703125 -5.09375 L 2.703125 0 L 1.234375 0 L 1.234375 -11.234375 L 2.703125 -11.234375 L 2.703125 -6.3125 L 8.4375 -6.3125 L 8.4375 -11.234375 Z M 9.90625 -11.234375 "/></g></g><g style="fill:#000000;fill-opacity:1;"><g transform="translate(169.773078, 73.611)"><path style="stroke:none" d="M 5.09375 0.140625 C 4.269531 0.140625 3.519531 -0.046875 2.84375 -0.421875 C 2.175781 -0.796875 1.648438 -1.328125 1.265625 -2.015625 C 0.878906 -2.710938 0.6875 -3.519531 0.6875 -4.4375 C 0.6875 -5.332031 0.882812 -6.128906 1.28125 -6.828125 C 1.675781 -7.523438 2.210938 -8.054688 2.890625 -8.421875 C 3.566406 -8.796875 4.320312 -8.984375 5.15625 -8.984375 C 6 -8.984375 6.757812 -8.796875 7.4375 -8.421875 C 8.113281 -8.054688 8.644531 -7.53125 9.03125 -6.84375 C 9.425781 -6.15625 9.625 -5.351562 9.625 -4.4375 C 9.625 -3.519531 9.421875 -2.710938 9.015625 -2.015625 C 8.617188 -1.328125 8.078125 -0.796875 7.390625 -0.421875 C 6.703125 -0.046875 5.9375 0.140625 5.09375 0.140625 Z M 5.09375 -1.140625 C 5.625 -1.140625 6.117188 -1.265625 6.578125 -1.515625 C 7.035156 -1.765625 7.40625 -2.132812 7.6875 -2.625 C 7.976562 -3.125 8.125 -3.726562 8.125 -4.4375 C 8.125 -5.144531 7.984375 -5.742188 7.703125 -6.234375 C 7.421875 -6.734375 7.054688 -7.101562 6.609375 -7.34375 C 6.160156 -7.582031 5.671875 -7.703125 5.140625 -7.703125 C 4.609375 -7.703125 4.117188 -7.582031 3.671875 -7.34375 C 3.222656 -7.101562 2.863281 -6.734375 2.59375 -6.234375 C 2.320312 -5.742188 2.1875 -5.144531 2.1875 -4.4375 C 2.1875 -3.71875 2.316406 -3.109375 2.578125 -2.609375 C 2.847656 -2.117188 3.203125 -1.75 3.640625 -1.5 C 4.085938 -1.257812 4.570312 -1.140625 5.09375 -1.140625 Z M 5.09375 -1.140625 "/></g></g><g style="fill:#000000;fill-opacity:1;"><g transform="translate(180.086848, 73.611)"><path style="stroke:none" d="M 4.375 0.140625 C 3.695312 0.140625 3.085938 0.0234375 2.546875 -0.203125 C 2.003906 -0.429688 1.578125 -0.753906 1.265625 -1.171875 C 0.960938 -1.585938 0.796875 -2.0625 0.765625 -2.59375 L 2.28125 -2.59375 C 2.320312 -2.15625 2.523438 -1.796875 2.890625 -1.515625 C 3.265625 -1.234375 3.753906 -1.09375 4.359375 -1.09375 C 4.910156 -1.09375 5.347656 -1.21875 5.671875 -1.46875 C 5.992188 -1.71875 6.15625 -2.03125 6.15625 -2.40625 C 6.15625 -2.789062 5.984375 -3.078125 5.640625 -3.265625 C 5.296875 -3.453125 4.765625 -3.640625 4.046875 -3.828125 C 3.390625 -3.992188 2.851562 -4.164062 2.4375 -4.34375 C 2.03125 -4.519531 1.675781 -4.78125 1.375 -5.125 C 1.082031 -5.476562 0.9375 -5.941406 0.9375 -6.515625 C 0.9375 -6.960938 1.066406 -7.375 1.328125 -7.75 C 1.597656 -8.132812 1.976562 -8.4375 2.46875 -8.65625 C 2.96875 -8.875 3.535156 -8.984375 4.171875 -8.984375 C 5.148438 -8.984375 5.941406 -8.734375 6.546875 -8.234375 C 7.148438 -7.742188 7.472656 -7.066406 7.515625 -6.203125 L 6.046875 -6.203125 C 6.015625 -6.671875 5.828125 -7.039062 5.484375 -7.3125 C 5.148438 -7.59375 4.695312 -7.734375 4.125 -7.734375 C 3.601562 -7.734375 3.1875 -7.617188 2.875 -7.390625 C 2.5625 -7.171875 2.40625 -6.878906 2.40625 -6.515625 C 2.40625 -6.222656 2.5 -5.984375 2.6875 -5.796875 C 2.875 -5.609375 3.109375 -5.457031 3.390625 -5.34375 C 3.679688 -5.226562 4.078125 -5.101562 4.578125 -4.96875 C 5.210938 -4.789062 5.726562 -4.617188 6.125 -4.453125 C 6.519531 -4.285156 6.859375 -4.035156 7.140625 -3.703125 C 7.429688 -3.367188 7.582031 -2.9375 7.59375 -2.40625 C 7.59375 -1.914062 7.457031 -1.476562 7.1875 -1.09375 C 6.914062 -0.707031 6.535156 -0.40625 6.046875 -0.1875 C 5.566406 0.03125 5.007812 0.140625 4.375 0.140625 Z M 4.375 0.140625 "/></g></g><g style="fill:#000000;fill-opacity:1;"><g transform="translate(188.499013, 73.611)"><path style="stroke:none" d="M 2.703125 -7.203125 C 2.992188 -7.710938 3.425781 -8.132812 4 -8.46875 C 4.582031 -8.8125 5.253906 -8.984375 6.015625 -8.984375 C 6.796875 -8.984375 7.503906 -8.796875 8.140625 -8.421875 C 8.785156 -8.046875 9.289062 -7.515625 9.65625 -6.828125 C 10.019531 -6.148438 10.203125 -5.359375 10.203125 -4.453125 C 10.203125 -3.554688 10.019531 -2.757812 9.65625 -2.0625 C 9.289062 -1.363281 8.785156 -0.820312 8.140625 -0.4375 C 7.503906 -0.0507812 6.796875 0.140625 6.015625 0.140625 C 5.265625 0.140625 4.597656 -0.0234375 4.015625 -0.359375 C 3.441406 -0.703125 3.003906 -1.125 2.703125 -1.625 L 2.703125 4.1875 L 1.234375 4.1875 L 1.234375 -8.84375 L 2.703125 -8.84375 Z M 8.703125 -4.453125 C 8.703125 -5.117188 8.566406 -5.695312 8.296875 -6.1875 C 8.035156 -6.6875 7.675781 -7.0625 7.21875 -7.3125 C 6.757812 -7.570312 6.253906 -7.703125 5.703125 -7.703125 C 5.171875 -7.703125 4.675781 -7.570312 4.21875 -7.3125 C 3.757812 -7.050781 3.390625 -6.671875 3.109375 -6.171875 C 2.835938 -5.671875 2.703125 -5.09375 2.703125 -4.4375 C 2.703125 -3.769531 2.835938 -3.1875 3.109375 -2.6875 C 3.390625 -2.1875 3.757812 -1.800781 4.21875 -1.53125 C 4.675781 -1.269531 5.171875 -1.140625 5.703125 -1.140625 C 6.253906 -1.140625 6.757812 -1.269531 7.21875 -1.53125 C 7.675781 -1.800781 8.035156 -2.1875 8.296875 -2.6875 C 8.566406 -3.1875 8.703125 -3.773438 8.703125 -4.453125 Z M 8.703125 -4.453125 "/></g></g><g style="fill:#000000;fill-opacity:1;"><g transform="translate(199.392928, 73.611)"><path style="stroke:none" d="M 2 -10.265625 C 1.71875 -10.265625 1.476562 -10.363281 1.28125 -10.5625 C 1.09375 -10.757812 1 -10.992188 1 -11.265625 C 1 -11.546875 1.09375 -11.78125 1.28125 -11.96875 C 1.476562 -12.164062 1.71875 -12.265625 2 -12.265625 C 2.269531 -12.265625 2.5 -12.164062 2.6875 -11.96875 C 2.875 -11.78125 2.96875 -11.546875 2.96875 -11.265625 C 2.96875 -10.992188 2.875 -10.757812 2.6875 -10.5625 C 2.5 -10.363281 2.269531 -10.265625 2 -10.265625 Z M 2.703125 -8.84375 L 2.703125 0 L 1.234375 0 L 1.234375 -8.84375 Z M 2.703125 -8.84375 "/></g></g><g style="fill:#000000;fill-opacity:1;"><g transform="translate(203.357288, 73.611)"><path style="stroke:none" d="M 3.03125 -7.625 L 3.03125 -2.421875 C 3.03125 -1.992188 3.117188 -1.6875 3.296875 -1.5 C 3.484375 -1.320312 3.800781 -1.234375 4.25 -1.234375 L 5.34375 -1.234375 L 5.34375 0 L 4.015625 0 C 3.203125 0 2.585938 -0.1875 2.171875 -0.5625 C 1.765625 -0.9375 1.5625 -1.554688 1.5625 -2.421875 L 1.5625 -7.625 L 0.421875 -7.625 L 0.421875 -8.84375 L 1.5625 -8.84375 L 1.5625 -11.0625 L 3.03125 -11.0625 L 3.03125 -8.84375 L 5.34375 -8.84375 L 5.34375 -7.625 Z M 3.03125 -7.625 "/></g></g><g style="fill:#000000;fill-opacity:1;"><g transform="translate(209.223243, 73.611)"><path style="stroke:none" d="M 0.6875 -4.453125 C 0.6875 -5.359375 0.867188 -6.148438 1.234375 -6.828125 C 1.609375 -7.515625 2.113281 -8.046875 2.75 -8.421875 C 3.382812 -8.796875 4.097656 -8.984375 4.890625 -8.984375 C 5.660156 -8.984375 6.328125 -8.816406 6.890625 -8.484375 C 7.460938 -8.148438 7.890625 -7.726562 8.171875 -7.21875 L 8.171875 -8.84375 L 9.65625 -8.84375 L 9.65625 0 L 8.171875 0 L 8.171875 -1.640625 C 7.878906 -1.128906 7.445312 -0.703125 6.875 -0.359375 C 6.300781 -0.0234375 5.632812 0.140625 4.875 0.140625 C 4.082031 0.140625 3.367188 -0.0507812 2.734375 -0.4375 C 2.109375 -0.820312 1.609375 -1.363281 1.234375 -2.0625 C 0.867188 -2.757812 0.6875 -3.554688 0.6875 -4.453125 Z M 8.171875 -4.4375 C 8.171875 -5.101562 8.035156 -5.679688 7.765625 -6.171875 C 7.503906 -6.671875 7.144531 -7.050781 6.6875 -7.3125 C 6.226562 -7.570312 5.722656 -7.703125 5.171875 -7.703125 C 4.628906 -7.703125 4.128906 -7.570312 3.671875 -7.3125 C 3.222656 -7.0625 2.863281 -6.6875 2.59375 -6.1875 C 2.320312 -5.695312 2.1875 -5.117188 2.1875 -4.453125 C 2.1875 -3.773438 2.320312 -3.1875 2.59375 -2.6875 C 2.863281 -2.1875 3.222656 -1.800781 3.671875 -1.53125 C 4.128906 -1.269531 4.628906 -1.140625 5.171875 -1.140625 C 5.722656 -1.140625 6.226562 -1.269531 6.6875 -1.53125 C 7.144531 -1.800781 7.503906 -2.1875 7.765625 -2.6875 C 8.035156 -3.1875 8.171875 -3.769531 8.171875 -4.4375 Z M 8.171875 -4.4375 "/></g></g><g style="fill:#000000;fill-opacity:1;"><g transform="translate(220.117159, 73.611)"><path style="stroke:none" d="M 2.703125 -11.9375 L 2.703125 0 L 1.234375 0 L 1.234375 -11.9375 Z M 2.703125 -11.9375 "/></g></g><g style="fill:#000000;fill-opacity:1;"><g transform="translate(224.081518, 73.611)"><path style="stroke:none" d="M 0.6875 -4.453125 C 0.6875 -5.359375 0.867188 -6.148438 1.234375 -6.828125 C 1.609375 -7.515625 2.113281 -8.046875 2.75 -8.421875 C 3.382812 -8.796875 4.097656 -8.984375 4.890625 -8.984375 C 5.660156 -8.984375 6.328125 -8.816406 6.890625 -8.484375 C 7.460938 -8.148438 7.890625 -7.726562 8.171875 -7.21875 L 8.171875 -8.84375 L 9.65625 -8.84375 L 9.65625 0 L 8.171875 0 L 8.171875 -1.640625 C 7.878906 -1.128906 7.445312 -0.703125 6.875 -0.359375 C 6.300781 -0.0234375 5.632812 0.140625 4.875 0.140625 C 4.082031 0.140625 3.367188 -0.0507812 2.734375 -0.4375 C 2.109375 -0.820312 1.609375 -1.363281 1.234375 -2.0625 C 0.867188 -2.757812 0.6875 -3.554688 0.6875 -4.453125 Z M 8.171875 -4.4375 C 8.171875 -5.101562 8.035156 -5.679688 7.765625 -6.171875 C 7.503906 -6.671875 7.144531 -7.050781 6.6875 -7.3125 C 6.226562 -7.570312 5.722656 -7.703125 5.171875 -7.703125 C 4.628906 -7.703125 4.128906 -7.570312 3.671875 -7.3125 C 3.222656 -7.0625 2.863281 -6.6875 2.59375 -6.1875 C 2.320312 -5.695312 2.1875 -5.117188 2.1875 -4.453125 C 2.1875 -3.773438 2.320312 -3.1875 2.59375 -2.6875 C 2.863281 -2.1875 3.222656 -1.800781 3.671875 -1.53125 C 4.128906 -1.269531 4.628906 -1.140625 5.171875 -1.140625 C 5.722656 -1.140625 6.226562 -1.269531 6.6875 -1.53125 C 7.144531 -1.800781 7.503906 -2.1875 7.765625 -2.6875 C 8.035156 -3.1875 8.171875 -3.769531 8.171875 -4.4375 Z M 8.171875 -4.4375 "/></g></g><g style="fill:#000000;fill-opacity:1;"><g transform="translate(234.975434, 73.611)"><path style="stroke:none" d="M 2.703125 -7.40625 C 2.960938 -7.90625 3.332031 -8.296875 3.8125 -8.578125 C 4.289062 -8.859375 4.875 -9 5.5625 -9 L 5.5625 -7.484375 L 5.171875 -7.484375 C 3.523438 -7.484375 2.703125 -6.59375 2.703125 -4.8125 L 2.703125 0 L 1.234375 0 L 1.234375 -8.84375 L 2.703125 -8.84375 Z M 2.703125 -7.40625 "/></g></g><g style="fill:#000000;fill-opacity:1;"><g transform="translate(240.986426, 73.611)"><path style="stroke:none" d="M 2 -10.265625 C 1.71875 -10.265625 1.476562 -10.363281 1.28125 -10.5625 C 1.09375 -10.757812 1 -10.992188 1 -11.265625 C 1 -11.546875 1.09375 -11.78125 1.28125 -11.96875 C 1.476562 -12.164062 1.71875 -12.265625 2 -12.265625 C 2.269531 -12.265625 2.5 -12.164062 2.6875 -11.96875 C 2.875 -11.78125 2.96875 -11.546875 2.96875 -11.265625 C 2.96875 -10.992188 2.875 -10.757812 2.6875 -10.5625 C 2.5 -10.363281 2.269531 -10.265625 2 -10.265625 Z M 2.703125 -8.84375 L 2.703125 0 L 1.234375 0 L 1.234375 -8.84375 Z M 2.703125 -8.84375 "/></g></g><g style="fill:#000000;fill-opacity:1;"><g transform="translate(244.950786, 73.611)"><path style="stroke:none" d="M 5.09375 0.140625 C 4.269531 0.140625 3.519531 -0.046875 2.84375 -0.421875 C 2.175781 -0.796875 1.648438 -1.328125 1.265625 -2.015625 C 0.878906 -2.710938 0.6875 -3.519531 0.6875 -4.4375 C 0.6875 -5.332031 0.882812 -6.128906 1.28125 -6.828125 C 1.675781 -7.523438 2.210938 -8.054688 2.890625 -8.421875 C 3.566406 -8.796875 4.320312 -8.984375 5.15625 -8.984375 C 6 -8.984375 6.757812 -8.796875 7.4375 -8.421875 C 8.113281 -8.054688 8.644531 -7.53125 9.03125 -6.84375 C 9.425781 -6.15625 9.625 -5.351562 9.625 -4.4375 C 9.625 -3.519531 9.421875 -2.710938 9.015625 -2.015625 C 8.617188 -1.328125 8.078125 -0.796875 7.390625 -0.421875 C 6.703125 -0.046875 5.9375 0.140625 5.09375 0.140625 Z M 5.09375 -1.140625 C 5.625 -1.140625 6.117188 -1.265625 6.578125 -1.515625 C 7.035156 -1.765625 7.40625 -2.132812 7.6875 -2.625 C 7.976562 -3.125 8.125 -3.726562 8.125 -4.4375 C 8.125 -5.144531 7.984375 -5.742188 7.703125 -6.234375 C 7.421875 -6.734375 7.054688 -7.101562 6.609375 -7.34375 C 6.160156 -7.582031 5.671875 -7.703125 5.140625 -7.703125 C 4.609375 -7.703125 4.117188 -7.582031 3.671875 -7.34375 C 3.222656 -7.101562 2.863281 -6.734375 2.59375 -6.234375 C 2.320312 -5.742188 2.1875 -5.144531 2.1875 -4.4375 C 2.1875 -3.71875 2.316406 -3.109375 2.578125 -2.609375 C 2.847656 -2.117188 3.203125 -1.75 3.640625 -1.5 C 4.085938 -1.257812 4.570312 -1.140625 5.09375 -1.140625 Z M 5.09375 -1.140625 "/></g></g><g style="fill:#000000;fill-opacity:1;"><g transform="translate(93.791143, 51.066105)"><path style="stroke:none" d="M 14.765625 0 L 9.625 -9.3125 L 8.1875 -9.3125 L 8.1875 0 L 2.171875 0 L 2.171875 -24.671875 L 12.265625 -24.671875 C 14.210938 -24.671875 15.867188 -24.328125 17.234375 -23.640625 C 18.609375 -22.960938 19.632812 -22.03125 20.3125 -20.84375 C 20.988281 -19.664062 21.328125 -18.351562 21.328125 -16.90625 C 21.328125 -15.257812 20.863281 -13.789062 19.9375 -12.5 C 19.007812 -11.21875 17.644531 -10.304688 15.84375 -9.765625 L 21.546875 0 Z M 8.1875 -13.5625 L 11.90625 -13.5625 C 13.007812 -13.5625 13.835938 -13.832031 14.390625 -14.375 C 14.941406 -14.914062 15.21875 -15.675781 15.21875 -16.65625 C 15.21875 -17.59375 14.941406 -18.328125 14.390625 -18.859375 C 13.835938 -19.398438 13.007812 -19.671875 11.90625 -19.671875 L 8.1875 -19.671875 Z M 8.1875 -13.5625 "/></g></g><g style="fill:#000000;fill-opacity:1;"><g transform="translate(116.699319, 51.066105)"><path style="stroke:none" d="M 11.109375 0.28125 C 9.179688 0.28125 7.453125 -0.125 5.921875 -0.9375 C 4.390625 -1.757812 3.179688 -2.929688 2.296875 -4.453125 C 1.421875 -5.984375 0.984375 -7.765625 0.984375 -9.796875 C 0.984375 -11.816406 1.425781 -13.59375 2.3125 -15.125 C 3.207031 -16.664062 4.425781 -17.84375 5.96875 -18.65625 C 7.519531 -19.476562 9.253906 -19.890625 11.171875 -19.890625 C 13.097656 -19.890625 14.832031 -19.476562 16.375 -18.65625 C 17.914062 -17.84375 19.128906 -16.664062 20.015625 -15.125 C 20.910156 -13.59375 21.359375 -11.816406 21.359375 -9.796875 C 21.359375 -7.785156 20.90625 -6.007812 20 -4.46875 C 19.101562 -2.9375 17.875 -1.757812 16.3125 -0.9375 C 14.757812 -0.125 13.023438 0.28125 11.109375 0.28125 Z M 11.109375 -4.921875 C 12.253906 -4.921875 13.226562 -5.34375 14.03125 -6.1875 C 14.84375 -7.03125 15.25 -8.234375 15.25 -9.796875 C 15.25 -11.367188 14.851562 -12.578125 14.0625 -13.421875 C 13.28125 -14.265625 12.316406 -14.6875 11.171875 -14.6875 C 10.003906 -14.6875 9.03125 -14.269531 8.25 -13.4375 C 7.476562 -12.601562 7.09375 -11.390625 7.09375 -9.796875 C 7.09375 -8.234375 7.472656 -7.03125 8.234375 -6.1875 C 8.992188 -5.34375 9.953125 -4.921875 11.109375 -4.921875 Z M 11.109375 -4.921875 "/></g></g><g style="fill:#000000;fill-opacity:1;"><g transform="translate(139.080469, 51.066105)"><path style="stroke:none" d="M 22.203125 -19.609375 L 9.90625 9.3125 L 3.4375 9.3125 L 7.9375 -0.671875 L -0.03125 -19.609375 L 6.671875 -19.609375 L 11.203125 -7.34375 L 15.703125 -19.609375 Z M 22.203125 -19.609375 "/></g></g><g style="fill:#000000;fill-opacity:1;"><g transform="translate(161.285941, 51.066105)"><path style="stroke:none" d="M 0.984375 -9.84375 C 0.984375 -11.851562 1.363281 -13.617188 2.125 -15.140625 C 2.882812 -16.671875 3.921875 -17.84375 5.234375 -18.65625 C 6.546875 -19.476562 8.007812 -19.890625 9.625 -19.890625 C 11.007812 -19.890625 12.222656 -19.609375 13.265625 -19.046875 C 14.304688 -18.484375 15.109375 -17.742188 15.671875 -16.828125 L 15.671875 -19.609375 L 21.6875 -19.609375 L 21.6875 0 L 15.671875 0 L 15.671875 -2.78125 C 15.085938 -1.863281 14.273438 -1.125 13.234375 -0.5625 C 12.191406 0 10.976562 0.28125 9.59375 0.28125 C 8 0.28125 6.546875 -0.132812 5.234375 -0.96875 C 3.921875 -1.800781 2.882812 -2.984375 2.125 -4.515625 C 1.363281 -6.046875 0.984375 -7.820312 0.984375 -9.84375 Z M 15.671875 -9.796875 C 15.671875 -11.296875 15.253906 -12.476562 14.421875 -13.34375 C 13.585938 -14.21875 12.578125 -14.65625 11.390625 -14.65625 C 10.191406 -14.65625 9.175781 -14.226562 8.34375 -13.375 C 7.507812 -12.519531 7.09375 -11.34375 7.09375 -9.84375 C 7.09375 -8.34375 7.507812 -7.148438 8.34375 -6.265625 C 9.175781 -5.390625 10.191406 -4.953125 11.390625 -4.953125 C 12.578125 -4.953125 13.585938 -5.382812 14.421875 -6.25 C 15.253906 -7.125 15.671875 -8.304688 15.671875 -9.796875 Z M 15.671875 -9.796875 "/></g></g><g style="fill:#000000;fill-opacity:1;"><g transform="translate(185.142772, 51.066105)"><path style="stroke:none" d="M 8.1875 -26 L 8.1875 0 L 2.171875 0 L 2.171875 -26 Z M 8.1875 -26 "/></g></g><g style="fill:#000000;fill-opacity:1;"><g transform="translate(195.507668, 51.066105)"><path style="stroke:none" d=""/></g></g><g style="fill:#000000;fill-opacity:1;"><g transform="translate(202.956339, 51.066105)"><path style="stroke:none" d="M 1.15625 -12.375 C 1.15625 -14.8125 1.679688 -16.984375 2.734375 -18.890625 C 3.796875 -20.796875 5.269531 -22.28125 7.15625 -23.34375 C 9.039062 -24.414062 11.175781 -24.953125 13.5625 -24.953125 C 16.488281 -24.953125 18.992188 -24.175781 21.078125 -22.625 C 23.171875 -21.082031 24.566406 -18.976562 25.265625 -16.3125 L 18.65625 -16.3125 C 18.164062 -17.332031 17.46875 -18.113281 16.5625 -18.65625 C 15.664062 -19.195312 14.644531 -19.46875 13.5 -19.46875 C 11.644531 -19.46875 10.144531 -18.820312 9 -17.53125 C 7.851562 -16.25 7.28125 -14.53125 7.28125 -12.375 C 7.28125 -10.21875 7.851562 -8.492188 9 -7.203125 C 10.144531 -5.910156 11.644531 -5.265625 13.5 -5.265625 C 14.644531 -5.265625 15.664062 -5.535156 16.5625 -6.078125 C 17.46875 -6.617188 18.164062 -7.40625 18.65625 -8.4375 L 25.265625 -8.4375 C 24.566406 -5.757812 23.171875 -3.65625 21.078125 -2.125 C 18.992188 -0.59375 16.488281 0.171875 13.5625 0.171875 C 11.175781 0.171875 9.039062 -0.359375 7.15625 -1.421875 C 5.269531 -2.484375 3.796875 -3.960938 2.734375 -5.859375 C 1.679688 -7.765625 1.15625 -9.9375 1.15625 -12.375 Z M 1.15625 -12.375 "/></g></g><g style="fill:#000000;fill-opacity:1;"><g transform="translate(229.729394, 51.066105)"><path style="stroke:none" d="M 0.984375 -9.84375 C 0.984375 -11.851562 1.363281 -13.617188 2.125 -15.140625 C 2.882812 -16.671875 3.921875 -17.84375 5.234375 -18.65625 C 6.546875 -19.476562 8.007812 -19.890625 9.625 -19.890625 C 11.007812 -19.890625 12.222656 -19.609375 13.265625 -19.046875 C 14.304688 -18.484375 15.109375 -17.742188 15.671875 -16.828125 L 15.671875 -19.609375 L 21.6875 -19.609375 L 21.6875 0 L 15.671875 0 L 15.671875 -2.78125 C 15.085938 -1.863281 14.273438 -1.125 13.234375 -0.5625 C 12.191406 0 10.976562 0.28125 9.59375 0.28125 C 8 0.28125 6.546875 -0.132812 5.234375 -0.96875 C 3.921875 -1.800781 2.882812 -2.984375 2.125 -4.515625 C 1.363281 -6.046875 0.984375 -7.820312 0.984375 -9.84375 Z M 15.671875 -9.796875 C 15.671875 -11.296875 15.253906 -12.476562 14.421875 -13.34375 C 13.585938 -14.21875 12.578125 -14.65625 11.390625 -14.65625 C 10.191406 -14.65625 9.175781 -14.226562 8.34375 -13.375 C 7.507812 -12.519531 7.09375 -11.34375 7.09375 -9.84375 C 7.09375 -8.34375 7.507812 -7.148438 8.34375 -6.265625 C 9.175781 -5.390625 10.191406 -4.953125 11.390625 -4.953125 C 12.578125 -4.953125 13.585938 -5.382812 14.421875 -6.25 C 15.253906 -7.125 15.671875 -8.304688 15.671875 -9.796875 Z M 15.671875 -9.796875 "/></g></g><g style="fill:#000000;fill-opacity:1;"><g transform="translate(253.586215, 51.066105)"><path style="stroke:none" d="M 8.1875 -16.34375 C 8.882812 -17.414062 9.757812 -18.257812 10.8125 -18.875 C 11.875 -19.5 13.050781 -19.8125 14.34375 -19.8125 L 14.34375 -13.453125 L 12.6875 -13.453125 C 11.1875 -13.453125 10.0625 -13.128906 9.3125 -12.484375 C 8.5625 -11.847656 8.1875 -10.71875 8.1875 -9.09375 L 8.1875 0 L 2.171875 0 L 2.171875 -19.609375 L 8.1875 -19.609375 Z M 8.1875 -16.34375 "/></g></g><g style="fill:#000000;fill-opacity:1;"><g transform="translate(268.624101, 51.066105)"><path style="stroke:none" d="M 20.65625 -10.125 C 20.65625 -9.5625 20.625 -8.972656 20.5625 -8.359375 L 6.953125 -8.359375 C 7.046875 -7.140625 7.4375 -6.207031 8.125 -5.5625 C 8.820312 -4.925781 9.675781 -4.609375 10.6875 -4.609375 C 12.1875 -4.609375 13.226562 -5.238281 13.8125 -6.5 L 20.203125 -6.5 C 19.878906 -5.207031 19.289062 -4.046875 18.4375 -3.015625 C 17.582031 -1.984375 16.507812 -1.175781 15.21875 -0.59375 C 13.925781 -0.0078125 12.484375 0.28125 10.890625 0.28125 C 8.972656 0.28125 7.265625 -0.125 5.765625 -0.9375 C 4.265625 -1.757812 3.09375 -2.929688 2.25 -4.453125 C 1.40625 -5.984375 0.984375 -7.765625 0.984375 -9.796875 C 0.984375 -11.835938 1.398438 -13.617188 2.234375 -15.140625 C 3.066406 -16.671875 4.234375 -17.84375 5.734375 -18.65625 C 7.234375 -19.476562 8.953125 -19.890625 10.890625 -19.890625 C 12.785156 -19.890625 14.472656 -19.488281 15.953125 -18.6875 C 17.429688 -17.894531 18.582031 -16.757812 19.40625 -15.28125 C 20.238281 -13.8125 20.65625 -12.09375 20.65625 -10.125 Z M 14.515625 -11.703125 C 14.515625 -12.734375 14.160156 -13.550781 13.453125 -14.15625 C 12.753906 -14.769531 11.878906 -15.078125 10.828125 -15.078125 C 9.816406 -15.078125 8.960938 -14.78125 8.265625 -14.1875 C 7.578125 -13.601562 7.15625 -12.773438 7 -11.703125 Z M 14.515625 -11.703125 "/></g></g></g></svg>