<svg xmlns="http://www.w3.org/2000/svg" xmlns:xlink="http://www.w3.org/1999/xlink" zoomAndPan="magnify" preserveAspectRatio="xMidYMid meet" version="1.2" viewBox="0.54 0.42 209 143.19"><defs><clipPath id="c1c736688d"><path d="M 0.464844 0 L 209.792969 0 L 209.792969 144 L 0.464844 144 Z M 0.464844 0 "/></clipPath></defs><g id="797ea19b6d"><g clip-rule="nonzero" clip-path="url(#c1c736688d)"><path style=" stroke:none;fill-rule:nonzero;fill:#000000;fill-opacity:1;" d="M 207.835938 92.980469 C 203.292969 91.621094 198.675781 90.441406 194.28125 88.703125 C 191.824219 87.734375 191.238281 88.582031 190.4375 90.5625 C 182.511719 110.148438 167.886719 121.515625 147.039062 124.097656 C 131.800781 125.988281 117.917969 121.574219 106.601562 111.097656 C 98.515625 103.609375 91.210938 95.28125 83.5 87.386719 C 82.417969 86.273438 82.910156 85.679688 83.8125 84.949219 C 86.832031 82.523438 89.859375 80.101562 92.824219 77.613281 C 97.910156 73.34375 103.460938 69.582031 107.375 64.054688 C 109.058594 62.070312 110.144531 59.734375 111.285156 57.433594 C 115.621094 47.773438 116.242188 37.941406 112.941406 28.015625 C 114.90625 26.539062 117.253906 25.28125 119.5 24.273438 C 119.738281 24.238281 120.007812 24.144531 120.347656 23.992188 C 122.226562 23.136719 124.148438 22.394531 126.113281 21.785156 C 126.113281 21.785156 126.113281 21.785156 126.121094 21.785156 C 129.386719 20.765625 132.738281 20.085938 136.164062 19.789062 C 148.976562 18.660156 160.824219 21.589844 171.441406 28.992188 C 180.589844 35.367188 186.984375 43.894531 190.886719 54.292969 C 191.28125 55.335938 191.550781 56.195312 192.988281 55.726562 C 198.054688 54.097656 203.148438 52.527344 208.21875 50.914062 C 208.835938 50.71875 209.441406 50.414062 209.542969 49.675781 C 209.390625 49.300781 209.230469 48.96875 209.117188 48.628906 C 204.324219 34.585938 195.792969 23.261719 183.949219 14.40625 C 175.566406 8.148438 166.203125 3.949219 155.976562 1.925781 C 148.792969 0.507812 141.539062 -0.0273438 134.15625 0.839844 C 130.789062 1.230469 127.492188 1.824219 124.253906 2.613281 L 124.261719 2.605469 C 124.261719 2.605469 111.941406 5.324219 102.347656 11.546875 C 95.171875 4.855469 85.367188 0.644531 74.304688 0.746094 C 50.644531 0.96875 26.980469 0.832031 3.316406 0.746094 C 1.046875 0.738281 0.535156 1.382812 0.542969 3.574219 C 0.613281 38.535156 0.597656 73.496094 0.597656 108.457031 C 0.597656 119.359375 0.628906 130.25 0.542969 141.144531 L 19.847656 141.144531 C 19.847656 140.933594 19.847656 140.703125 19.847656 140.449219 C 19.835938 101.097656 19.863281 61.746094 19.796875 22.394531 C 19.785156 20.273438 20.382812 19.695312 22.492188 19.714844 C 39.707031 19.789062 56.917969 19.765625 74.136719 19.746094 C 77.027344 19.738281 79.800781 20.257812 82.511719 21.234375 C 92.035156 24.664062 97.742188 35.613281 95.308594 45.320312 C 93.957031 50.726562 90.757812 54.648438 86.574219 58.054688 C 76.066406 66.601562 65.566406 75.1875 55.054688 83.761719 L 72.910156 103.957031 C 78.21875 109.542969 83.558594 115.105469 88.855469 120.710938 C 100.460938 132.992188 114.625 140.480469 131.328125 142.84375 C 148.203125 145.226562 164.136719 142.035156 178.6875 133.121094 C 193.261719 124.199219 203.472656 111.617188 209.136719 95.417969 C 209.707031 93.820312 209.167969 93.378906 207.835938 92.980469 Z M 207.835938 92.980469 "/><path style=" stroke:none;fill-rule:nonzero;fill:#000000;fill-opacity:1;" d="M 207.835938 92.980469 C 203.292969 91.621094 198.675781 90.441406 194.28125 88.703125 C 191.824219 87.734375 191.238281 88.582031 190.4375 90.5625 C 182.511719 110.148438 167.886719 121.515625 147.039062 124.097656 C 131.800781 125.988281 117.917969 121.574219 106.601562 111.097656 C 98.515625 103.609375 91.210938 95.28125 83.5 87.386719 C 82.417969 86.273438 82.910156 85.679688 83.8125 84.949219 C 86.832031 82.523438 89.859375 80.101562 92.824219 77.613281 C 97.910156 73.34375 103.460938 69.582031 107.375 64.054688 C 109.058594 62.070312 110.144531 59.734375 111.285156 57.433594 C 115.621094 47.773438 116.242188 37.941406 112.941406 28.015625 C 114.90625 26.539062 117.253906 25.28125 119.5 24.273438 C 119.738281 24.238281 120.007812 24.144531 120.347656 23.992188 C 122.226562 23.136719 124.148438 22.394531 126.113281 21.785156 C 126.113281 21.785156 126.113281 21.785156 126.121094 21.785156 C 129.386719 20.765625 132.738281 20.085938 136.164062 19.789062 C 148.976562 18.660156 160.824219 21.589844 171.441406 28.992188 C 180.589844 35.367188 186.984375 43.894531 190.886719 54.292969 C 191.28125 55.335938 191.550781 56.195312 192.988281 55.726562 C 198.054688 54.097656 203.148438 52.527344 208.21875 50.914062 C 208.835938 50.71875 209.441406 50.414062 209.542969 49.675781 C 209.390625 49.300781 209.230469 48.96875 209.117188 48.628906 C 204.324219 34.585938 195.792969 23.261719 183.949219 14.40625 C 175.566406 8.148438 166.203125 3.949219 155.976562 1.925781 C 148.792969 0.507812 141.539062 -0.0273438 134.15625 0.839844 C 130.789062 1.230469 127.492188 1.824219 124.253906 2.613281 L 124.261719 2.605469 C 124.261719 2.605469 111.941406 5.324219 102.347656 11.546875 C 95.171875 4.855469 85.367188 0.644531 74.304688 0.746094 C 50.644531 0.96875 26.980469 0.832031 3.316406 0.746094 C 1.046875 0.738281 0.535156 1.382812 0.542969 3.574219 C 0.613281 38.535156 0.597656 73.496094 0.597656 108.457031 C 0.597656 119.359375 0.628906 130.25 0.542969 141.144531 L 19.847656 141.144531 C 19.847656 140.933594 19.847656 140.703125 19.847656 140.449219 C 19.835938 101.097656 19.863281 61.746094 19.796875 22.394531 C 19.785156 20.273438 20.382812 19.695312 22.492188 19.714844 C 39.707031 19.789062 56.917969 19.765625 74.136719 19.746094 C 77.027344 19.738281 79.800781 20.257812 82.511719 21.234375 C 92.035156 24.664062 97.742188 35.613281 95.308594 45.320312 C 93.957031 50.726562 90.757812 54.648438 86.574219 58.054688 C 76.066406 66.601562 65.566406 75.1875 55.054688 83.761719 L 72.910156 103.957031 C 78.21875 109.542969 83.558594 115.105469 88.855469 120.710938 C 100.460938 132.992188 114.625 140.480469 131.328125 142.84375 C 148.203125 145.226562 164.136719 142.035156 178.6875 133.121094 C 193.261719 124.199219 203.472656 111.617188 209.136719 95.417969 C 209.707031 93.820312 209.167969 93.378906 207.835938 92.980469 Z M 207.835938 92.980469 "/></g></g></svg>