<svg xmlns="http://www.w3.org/2000/svg" xmlns:xlink="http://www.w3.org/1999/xlink" width="282" zoomAndPan="magnify" viewBox="0 0 211.5 147.000002" height="196" preserveAspectRatio="xMidYMid meet" version="1.2"><defs><clipPath id="c6eb02f9a7"><path d="M 0.464844 0 L 209.792969 0 L 209.792969 144 L 0.464844 144 Z M 0.464844 0 "/></clipPath></defs><g id="267f7ff092"><g clip-rule="nonzero" clip-path="url(#c6eb02f9a7)"><path style=" stroke:none;fill-rule:nonzero;fill:#d9d9d9;fill-opacity:1;" d="M 207.519531 92.980469 C 202.984375 91.621094 198.375 90.441406 193.988281 88.703125 C 191.53125 87.734375 190.945312 88.582031 190.148438 90.5625 C 182.238281 110.148438 167.632812 121.515625 146.816406 124.097656 C 131.601562 125.988281 117.738281 121.574219 106.4375 111.097656 C 98.363281 103.609375 91.070312 95.28125 83.371094 87.386719 C 82.292969 86.273438 82.785156 85.679688 83.6875 84.949219 C 86.699219 82.523438 89.722656 80.101562 92.683594 77.613281 C 97.761719 73.34375 103.304688 69.582031 107.210938 64.054688 C 108.890625 62.070312 109.980469 59.734375 111.117188 57.433594 C 115.445312 47.773438 116.066406 37.941406 112.773438 28.015625 C 114.734375 26.539062 117.078125 25.28125 119.316406 24.273438 C 119.554688 24.238281 119.828125 24.144531 120.167969 23.992188 C 122.042969 23.136719 123.960938 22.394531 125.921875 21.785156 C 125.921875 21.785156 125.921875 21.785156 125.929688 21.785156 C 129.191406 20.765625 132.535156 20.085938 135.957031 19.789062 C 148.753906 18.660156 160.578125 21.589844 171.183594 28.992188 C 180.316406 35.367188 186.703125 43.894531 190.597656 54.292969 C 190.988281 55.335938 191.261719 56.195312 192.695312 55.726562 C 197.757812 54.097656 202.839844 52.527344 207.902344 50.914062 C 208.519531 50.71875 209.125 50.414062 209.226562 49.675781 C 209.074219 49.300781 208.910156 48.96875 208.800781 48.628906 C 204.011719 34.585938 195.496094 23.261719 183.671875 14.40625 C 175.300781 8.148438 165.953125 3.949219 155.738281 1.925781 C 148.566406 0.507812 141.324219 -0.0273438 133.953125 0.839844 C 130.59375 1.230469 127.296875 1.824219 124.0625 2.613281 L 124.074219 2.605469 C 124.074219 2.605469 111.769531 5.324219 102.195312 11.546875 C 95.027344 4.855469 85.238281 0.644531 74.195312 0.746094 C 50.566406 0.96875 26.941406 0.832031 3.3125 0.746094 C 1.046875 0.738281 0.535156 1.382812 0.542969 3.574219 C 0.613281 38.535156 0.59375 73.496094 0.59375 108.457031 C 0.59375 119.359375 0.628906 130.25 0.542969 141.144531 L 19.816406 141.144531 C 19.816406 140.933594 19.816406 140.703125 19.816406 140.449219 C 19.808594 101.097656 19.832031 61.746094 19.765625 22.394531 C 19.757812 20.273438 20.351562 19.695312 22.457031 19.714844 C 39.648438 19.789062 56.832031 19.765625 74.023438 19.746094 C 76.910156 19.738281 79.679688 20.257812 82.386719 21.234375 C 91.894531 24.664062 97.59375 35.613281 95.164062 45.320312 C 93.8125 50.726562 90.621094 54.648438 86.445312 58.054688 C 75.953125 66.601562 65.464844 75.1875 54.972656 83.761719 L 72.800781 103.957031 C 78.101562 109.542969 83.429688 115.105469 88.71875 120.710938 C 100.308594 132.992188 114.453125 140.480469 131.128906 142.84375 C 147.980469 145.226562 163.890625 142.035156 178.417969 133.121094 C 192.96875 124.199219 203.164062 111.617188 208.816406 95.417969 C 209.386719 93.820312 208.851562 93.378906 207.519531 92.980469 Z M 207.519531 92.980469 "/><path style=" stroke:none;fill-rule:nonzero;fill:#d9d9d9;fill-opacity:1;" d="M 207.519531 92.980469 C 202.984375 91.621094 198.375 90.441406 193.988281 88.703125 C 191.53125 87.734375 190.945312 88.582031 190.148438 90.5625 C 182.238281 110.148438 167.632812 121.515625 146.816406 124.097656 C 131.601562 125.988281 117.738281 121.574219 106.4375 111.097656 C 98.363281 103.609375 91.070312 95.28125 83.371094 87.386719 C 82.292969 86.273438 82.785156 85.679688 83.6875 84.949219 C 86.699219 82.523438 89.722656 80.101562 92.683594 77.613281 C 97.761719 73.34375 103.304688 69.582031 107.210938 64.054688 C 108.890625 62.070312 109.980469 59.734375 111.117188 57.433594 C 115.445312 47.773438 116.066406 37.941406 112.773438 28.015625 C 114.734375 26.539062 117.078125 25.28125 119.316406 24.273438 C 119.554688 24.238281 119.828125 24.144531 120.167969 23.992188 C 122.042969 23.136719 123.960938 22.394531 125.921875 21.785156 C 125.921875 21.785156 125.921875 21.785156 125.929688 21.785156 C 129.191406 20.765625 132.535156 20.085938 135.957031 19.789062 C 148.753906 18.660156 160.578125 21.589844 171.183594 28.992188 C 180.316406 35.367188 186.703125 43.894531 190.597656 54.292969 C 190.988281 55.335938 191.261719 56.195312 192.695312 55.726562 C 197.757812 54.097656 202.839844 52.527344 207.902344 50.914062 C 208.519531 50.71875 209.125 50.414062 209.226562 49.675781 C 209.074219 49.300781 208.910156 48.96875 208.800781 48.628906 C 204.011719 34.585938 195.496094 23.261719 183.671875 14.40625 C 175.300781 8.148438 165.953125 3.949219 155.738281 1.925781 C 148.566406 0.507812 141.324219 -0.0273438 133.953125 0.839844 C 130.59375 1.230469 127.296875 1.824219 124.0625 2.613281 L 124.074219 2.605469 C 124.074219 2.605469 111.769531 5.324219 102.195312 11.546875 C 95.027344 4.855469 85.238281 0.644531 74.195312 0.746094 C 50.566406 0.96875 26.941406 0.832031 3.3125 0.746094 C 1.046875 0.738281 0.535156 1.382812 0.542969 3.574219 C 0.613281 38.535156 0.59375 73.496094 0.59375 108.457031 C 0.59375 119.359375 0.628906 130.25 0.542969 141.144531 L 19.816406 141.144531 C 19.816406 140.933594 19.816406 140.703125 19.816406 140.449219 C 19.808594 101.097656 19.832031 61.746094 19.765625 22.394531 C 19.757812 20.273438 20.351562 19.695312 22.457031 19.714844 C 39.648438 19.789062 56.832031 19.765625 74.023438 19.746094 C 76.910156 19.738281 79.679688 20.257812 82.386719 21.234375 C 91.894531 24.664062 97.59375 35.613281 95.164062 45.320312 C 93.8125 50.726562 90.621094 54.648438 86.445312 58.054688 C 75.953125 66.601562 65.464844 75.1875 54.972656 83.761719 L 72.800781 103.957031 C 78.101562 109.542969 83.429688 115.105469 88.71875 120.710938 C 100.308594 132.992188 114.453125 140.480469 131.128906 142.84375 C 147.980469 145.226562 163.890625 142.035156 178.417969 133.121094 C 192.96875 124.199219 203.164062 111.617188 208.816406 95.417969 C 209.386719 93.820312 208.851562 93.378906 207.519531 92.980469 Z M 207.519531 92.980469 "/></g></g></svg>