<svg xmlns="http://www.w3.org/2000/svg" xmlns:xlink="http://www.w3.org/1999/xlink" zoomAndPan="magnify" preserveAspectRatio="xMidYMid meet" version="1.2" viewBox="0.97 76.32 883.53 161.1"><defs><clipPath id="bea0da53df"><path d="M 0.890625 79.089844 L 211 79.089844 L 211 224 L 0.890625 224 Z M 0.890625 79.089844 "/></clipPath></defs><g id="469c0a1bcb"><g style="fill:#000000;fill-opacity:1;"><g transform="translate(291.347966, 224.623113)"><path style="stroke:none" d="M 2.109375 -17.1875 C 2.109375 -20.53125 2.863281 -23.539062 4.375 -26.21875 C 5.882812 -28.894531 7.941406 -30.988281 10.546875 -32.5 C 13.160156 -34.007812 16.0625 -34.765625 19.25 -34.765625 C 22.988281 -34.765625 26.253906 -33.859375 29.046875 -32.046875 C 31.835938 -30.242188 33.875 -27.6875 35.15625 -24.375 L 29.78125 -24.375 C 28.832031 -26.4375 27.460938 -28.023438 25.671875 -29.140625 C 23.890625 -30.265625 21.75 -30.828125 19.25 -30.828125 C 16.851562 -30.828125 14.703125 -30.265625 12.796875 -29.140625 C 10.898438 -28.023438 9.410156 -26.441406 8.328125 -24.390625 C 7.242188 -22.335938 6.703125 -19.9375 6.703125 -17.1875 C 6.703125 -14.457031 7.242188 -12.066406 8.328125 -10.015625 C 9.410156 -7.960938 10.898438 -6.378906 12.796875 -5.265625 C 14.703125 -4.148438 16.851562 -3.59375 19.25 -3.59375 C 21.75 -3.59375 23.890625 -4.140625 25.671875 -5.234375 C 27.460938 -6.335938 28.832031 -7.925781 29.78125 -10 L 35.15625 -10 C 33.875 -6.71875 31.835938 -4.179688 29.046875 -2.390625 C 26.253906 -0.597656 22.988281 0.296875 19.25 0.296875 C 16.0625 0.296875 13.160156 -0.445312 10.546875 -1.9375 C 7.941406 -3.4375 5.882812 -5.515625 4.375 -8.171875 C 2.863281 -10.828125 2.109375 -13.832031 2.109375 -17.1875 Z M 2.109375 -17.1875 "/></g></g><g style="fill:#000000;fill-opacity:1;"><g transform="translate(329.347572, 224.623113)"><path style="stroke:none" d="M 15.5625 0.4375 C 13.03125 0.4375 10.738281 -0.132812 8.6875 -1.28125 C 6.632812 -2.425781 5.023438 -4.054688 3.859375 -6.171875 C 2.691406 -8.296875 2.109375 -10.753906 2.109375 -13.546875 C 2.109375 -16.296875 2.707031 -18.726562 3.90625 -20.84375 C 5.113281 -22.96875 6.75 -24.59375 8.8125 -25.71875 C 10.882812 -26.851562 13.195312 -27.421875 15.75 -27.421875 C 18.3125 -27.421875 20.625 -26.851562 22.6875 -25.71875 C 24.757812 -24.59375 26.394531 -22.976562 27.59375 -20.875 C 28.789062 -18.769531 29.390625 -16.328125 29.390625 -13.546875 C 29.390625 -10.753906 28.773438 -8.296875 27.546875 -6.171875 C 26.316406 -4.054688 24.648438 -2.425781 22.546875 -1.28125 C 20.441406 -0.132812 18.113281 0.4375 15.5625 0.4375 Z M 15.5625 -3.5 C 17.164062 -3.5 18.671875 -3.875 20.078125 -4.625 C 21.492188 -5.382812 22.632812 -6.519531 23.5 -8.03125 C 24.375 -9.539062 24.8125 -11.378906 24.8125 -13.546875 C 24.8125 -15.703125 24.382812 -17.535156 23.53125 -19.046875 C 22.675781 -20.554688 21.5625 -21.679688 20.1875 -22.421875 C 18.8125 -23.160156 17.316406 -23.53125 15.703125 -23.53125 C 14.066406 -23.53125 12.566406 -23.160156 11.203125 -22.421875 C 9.835938 -21.679688 8.742188 -20.554688 7.921875 -19.046875 C 7.109375 -17.535156 6.703125 -15.703125 6.703125 -13.546875 C 6.703125 -11.335938 7.101562 -9.476562 7.90625 -7.96875 C 8.707031 -6.46875 9.78125 -5.347656 11.125 -4.609375 C 12.46875 -3.867188 13.945312 -3.5 15.5625 -3.5 Z M 15.5625 -3.5 "/></g></g><g style="fill:#000000;fill-opacity:1;"><g transform="translate(360.849846, 224.623113)"><path style="stroke:none" d="M 16.9375 -27.46875 C 20.21875 -27.46875 22.875 -26.472656 24.90625 -24.484375 C 26.945312 -22.503906 27.96875 -19.644531 27.96875 -15.90625 L 27.96875 0 L 23.53125 0 L 23.53125 -15.265625 C 23.53125 -17.953125 22.859375 -20.007812 21.515625 -21.4375 C 20.171875 -22.863281 18.332031 -23.578125 16 -23.578125 C 13.632812 -23.578125 11.753906 -22.835938 10.359375 -21.359375 C 8.960938 -19.890625 8.265625 -17.742188 8.265625 -14.921875 L 8.265625 0 L 3.796875 0 L 3.796875 -26.984375 L 8.265625 -26.984375 L 8.265625 -23.140625 C 9.148438 -24.515625 10.351562 -25.578125 11.875 -26.328125 C 13.40625 -27.085938 15.09375 -27.46875 16.9375 -27.46875 Z M 16.9375 -27.46875 "/></g></g><g style="fill:#000000;fill-opacity:1;"><g transform="translate(392.35212, 224.623113)"><path style="stroke:none" d="M 9.25 -23.28125 L 9.25 -7.390625 C 9.25 -6.078125 9.53125 -5.148438 10.09375 -4.609375 C 10.65625 -4.066406 11.625 -3.796875 13 -3.796875 L 16.296875 -3.796875 L 16.296875 0 L 12.265625 0 C 9.765625 0 7.890625 -0.570312 6.640625 -1.71875 C 5.398438 -2.875 4.78125 -4.765625 4.78125 -7.390625 L 4.78125 -23.28125 L 1.28125 -23.28125 L 1.28125 -26.984375 L 4.78125 -26.984375 L 4.78125 -33.78125 L 9.25 -33.78125 L 9.25 -26.984375 L 16.296875 -26.984375 L 16.296875 -23.28125 Z M 9.25 -23.28125 "/></g></g><g style="fill:#000000;fill-opacity:1;"><g transform="translate(410.269034, 224.623113)"><path style="stroke:none" d="M 8.265625 -22.59375 C 9.054688 -24.132812 10.179688 -25.332031 11.640625 -26.1875 C 13.097656 -27.039062 14.878906 -27.46875 16.984375 -27.46875 L 16.984375 -22.84375 L 15.796875 -22.84375 C 10.773438 -22.84375 8.265625 -20.117188 8.265625 -14.671875 L 8.265625 0 L 3.796875 0 L 3.796875 -26.984375 L 8.265625 -26.984375 Z M 8.265625 -22.59375 "/></g></g><g style="fill:#000000;fill-opacity:1;"><g transform="translate(428.628946, 224.623113)"><path style="stroke:none" d="M 15.5625 0.4375 C 13.03125 0.4375 10.738281 -0.132812 8.6875 -1.28125 C 6.632812 -2.425781 5.023438 -4.054688 3.859375 -6.171875 C 2.691406 -8.296875 2.109375 -10.753906 2.109375 -13.546875 C 2.109375 -16.296875 2.707031 -18.726562 3.90625 -20.84375 C 5.113281 -22.96875 6.75 -24.59375 8.8125 -25.71875 C 10.882812 -26.851562 13.195312 -27.421875 15.75 -27.421875 C 18.3125 -27.421875 20.625 -26.851562 22.6875 -25.71875 C 24.757812 -24.59375 26.394531 -22.976562 27.59375 -20.875 C 28.789062 -18.769531 29.390625 -16.328125 29.390625 -13.546875 C 29.390625 -10.753906 28.773438 -8.296875 27.546875 -6.171875 C 26.316406 -4.054688 24.648438 -2.425781 22.546875 -1.28125 C 20.441406 -0.132812 18.113281 0.4375 15.5625 0.4375 Z M 15.5625 -3.5 C 17.164062 -3.5 18.671875 -3.875 20.078125 -4.625 C 21.492188 -5.382812 22.632812 -6.519531 23.5 -8.03125 C 24.375 -9.539062 24.8125 -11.378906 24.8125 -13.546875 C 24.8125 -15.703125 24.382812 -17.535156 23.53125 -19.046875 C 22.675781 -20.554688 21.5625 -21.679688 20.1875 -22.421875 C 18.8125 -23.160156 17.316406 -23.53125 15.703125 -23.53125 C 14.066406 -23.53125 12.566406 -23.160156 11.203125 -22.421875 C 9.835938 -21.679688 8.742188 -20.554688 7.921875 -19.046875 C 7.109375 -17.535156 6.703125 -15.703125 6.703125 -13.546875 C 6.703125 -11.335938 7.101562 -9.476562 7.90625 -7.96875 C 8.707031 -6.46875 9.78125 -5.347656 11.125 -4.609375 C 12.46875 -3.867188 13.945312 -3.5 15.5625 -3.5 Z M 15.5625 -3.5 "/></g></g><g style="fill:#000000;fill-opacity:1;"><g transform="translate(460.13122, 224.623113)"><path style="stroke:none" d="M 8.265625 -36.4375 L 8.265625 0 L 3.796875 0 L 3.796875 -36.4375 Z M 8.265625 -36.4375 "/></g></g><g style="fill:#000000;fill-opacity:1;"><g transform="translate(472.239918, 224.623113)"><path style="stroke:none" d=""/></g></g><g style="fill:#000000;fill-opacity:1;"><g transform="translate(485.382279, 224.623113)"><path style="stroke:none" d="M 30.234375 -34.3125 L 30.234375 0 L 25.75 0 L 25.75 -15.5625 L 8.265625 -15.5625 L 8.265625 0 L 3.796875 0 L 3.796875 -34.3125 L 8.265625 -34.3125 L 8.265625 -19.25 L 25.75 -19.25 L 25.75 -34.3125 Z M 30.234375 -34.3125 "/></g></g><g style="fill:#000000;fill-opacity:1;"><g transform="translate(519.444116, 224.623113)"><path style="stroke:none" d="M 15.5625 0.4375 C 13.03125 0.4375 10.738281 -0.132812 8.6875 -1.28125 C 6.632812 -2.425781 5.023438 -4.054688 3.859375 -6.171875 C 2.691406 -8.296875 2.109375 -10.753906 2.109375 -13.546875 C 2.109375 -16.296875 2.707031 -18.726562 3.90625 -20.84375 C 5.113281 -22.96875 6.75 -24.59375 8.8125 -25.71875 C 10.882812 -26.851562 13.195312 -27.421875 15.75 -27.421875 C 18.3125 -27.421875 20.625 -26.851562 22.6875 -25.71875 C 24.757812 -24.59375 26.394531 -22.976562 27.59375 -20.875 C 28.789062 -18.769531 29.390625 -16.328125 29.390625 -13.546875 C 29.390625 -10.753906 28.773438 -8.296875 27.546875 -6.171875 C 26.316406 -4.054688 24.648438 -2.425781 22.546875 -1.28125 C 20.441406 -0.132812 18.113281 0.4375 15.5625 0.4375 Z M 15.5625 -3.5 C 17.164062 -3.5 18.671875 -3.875 20.078125 -4.625 C 21.492188 -5.382812 22.632812 -6.519531 23.5 -8.03125 C 24.375 -9.539062 24.8125 -11.378906 24.8125 -13.546875 C 24.8125 -15.703125 24.382812 -17.535156 23.53125 -19.046875 C 22.675781 -20.554688 21.5625 -21.679688 20.1875 -22.421875 C 18.8125 -23.160156 17.316406 -23.53125 15.703125 -23.53125 C 14.066406 -23.53125 12.566406 -23.160156 11.203125 -22.421875 C 9.835938 -21.679688 8.742188 -20.554688 7.921875 -19.046875 C 7.109375 -17.535156 6.703125 -15.703125 6.703125 -13.546875 C 6.703125 -11.335938 7.101562 -9.476562 7.90625 -7.96875 C 8.707031 -6.46875 9.78125 -5.347656 11.125 -4.609375 C 12.46875 -3.867188 13.945312 -3.5 15.5625 -3.5 Z M 15.5625 -3.5 "/></g></g><g style="fill:#000000;fill-opacity:1;"><g transform="translate(550.946389, 224.623113)"><path style="stroke:none" d="M 13.34375 0.4375 C 11.269531 0.4375 9.410156 0.0859375 7.765625 -0.609375 C 6.128906 -1.316406 4.835938 -2.300781 3.890625 -3.5625 C 2.941406 -4.832031 2.414062 -6.285156 2.3125 -7.921875 L 6.9375 -7.921875 C 7.070312 -6.578125 7.703125 -5.476562 8.828125 -4.625 C 9.960938 -3.769531 11.453125 -3.34375 13.296875 -3.34375 C 15.003906 -3.34375 16.347656 -3.71875 17.328125 -4.46875 C 18.316406 -5.226562 18.8125 -6.179688 18.8125 -7.328125 C 18.8125 -8.515625 18.285156 -9.394531 17.234375 -9.96875 C 16.179688 -10.539062 14.554688 -11.109375 12.359375 -11.671875 C 10.359375 -12.191406 8.722656 -12.722656 7.453125 -13.265625 C 6.191406 -13.804688 5.109375 -14.609375 4.203125 -15.671875 C 3.304688 -16.742188 2.859375 -18.148438 2.859375 -19.890625 C 2.859375 -21.265625 3.265625 -22.523438 4.078125 -23.671875 C 4.898438 -24.828125 6.066406 -25.738281 7.578125 -26.40625 C 9.085938 -27.082031 10.8125 -27.421875 12.75 -27.421875 C 15.738281 -27.421875 18.148438 -26.664062 19.984375 -25.15625 C 21.828125 -23.644531 22.8125 -21.578125 22.9375 -18.953125 L 18.46875 -18.953125 C 18.363281 -20.367188 17.796875 -21.5 16.765625 -22.34375 C 15.734375 -23.195312 14.347656 -23.625 12.609375 -23.625 C 10.992188 -23.625 9.707031 -23.28125 8.75 -22.59375 C 7.800781 -21.90625 7.328125 -21.003906 7.328125 -19.890625 C 7.328125 -19.003906 7.613281 -18.273438 8.1875 -17.703125 C 8.769531 -17.128906 9.492188 -16.664062 10.359375 -16.3125 C 11.234375 -15.96875 12.441406 -15.585938 13.984375 -15.171875 C 15.921875 -14.640625 17.492188 -14.117188 18.703125 -13.609375 C 19.921875 -13.097656 20.960938 -12.332031 21.828125 -11.3125 C 22.703125 -10.300781 23.15625 -8.972656 23.1875 -7.328125 C 23.1875 -5.859375 22.773438 -4.53125 21.953125 -3.34375 C 21.140625 -2.164062 19.984375 -1.238281 18.484375 -0.5625 C 16.992188 0.101562 15.28125 0.4375 13.34375 0.4375 Z M 13.34375 0.4375 "/></g></g><g style="fill:#000000;fill-opacity:1;"><g transform="translate(576.640418, 224.623113)"><path style="stroke:none" d="M 8.265625 -22 C 9.148438 -23.550781 10.472656 -24.84375 12.234375 -25.875 C 13.992188 -26.90625 16.035156 -27.421875 18.359375 -27.421875 C 20.753906 -27.421875 22.925781 -26.847656 24.875 -25.703125 C 26.832031 -24.554688 28.367188 -22.9375 29.484375 -20.84375 C 30.609375 -18.757812 31.171875 -16.34375 31.171875 -13.59375 C 31.171875 -10.863281 30.609375 -8.429688 29.484375 -6.296875 C 28.367188 -4.171875 26.832031 -2.515625 24.875 -1.328125 C 22.925781 -0.148438 20.753906 0.4375 18.359375 0.4375 C 16.066406 0.4375 14.039062 -0.078125 12.28125 -1.109375 C 10.53125 -2.140625 9.191406 -3.425781 8.265625 -4.96875 L 8.265625 12.796875 L 3.796875 12.796875 L 3.796875 -26.984375 L 8.265625 -26.984375 Z M 26.59375 -13.59375 C 26.59375 -15.625 26.179688 -17.394531 25.359375 -18.90625 C 24.535156 -20.414062 23.425781 -21.5625 22.03125 -22.34375 C 20.632812 -23.132812 19.097656 -23.53125 17.421875 -23.53125 C 15.785156 -23.53125 14.269531 -23.128906 12.875 -22.328125 C 11.476562 -21.523438 10.359375 -20.359375 9.515625 -18.828125 C 8.679688 -17.304688 8.265625 -15.546875 8.265625 -13.546875 C 8.265625 -11.503906 8.679688 -9.71875 9.515625 -8.1875 C 10.359375 -6.664062 11.476562 -5.503906 12.875 -4.703125 C 14.269531 -3.898438 15.785156 -3.5 17.421875 -3.5 C 19.097656 -3.5 20.632812 -3.898438 22.03125 -4.703125 C 23.425781 -5.503906 24.535156 -6.664062 25.359375 -8.1875 C 26.179688 -9.71875 26.59375 -11.519531 26.59375 -13.59375 Z M 26.59375 -13.59375 "/></g></g><g style="fill:#000000;fill-opacity:1;"><g transform="translate(609.914683, 224.623113)"><path style="stroke:none" d="M 6.109375 -31.359375 C 5.253906 -31.359375 4.53125 -31.65625 3.9375 -32.25 C 3.34375 -32.84375 3.046875 -33.566406 3.046875 -34.421875 C 3.046875 -35.265625 3.34375 -35.984375 3.9375 -36.578125 C 4.53125 -37.171875 5.253906 -37.46875 6.109375 -37.46875 C 6.921875 -37.46875 7.613281 -37.171875 8.1875 -36.578125 C 8.769531 -35.984375 9.0625 -35.265625 9.0625 -34.421875 C 9.0625 -33.566406 8.769531 -32.84375 8.1875 -32.25 C 7.613281 -31.65625 6.921875 -31.359375 6.109375 -31.359375 Z M 8.265625 -26.984375 L 8.265625 0 L 3.796875 0 L 3.796875 -26.984375 Z M 8.265625 -26.984375 "/></g></g><g style="fill:#000000;fill-opacity:1;"><g transform="translate(622.023381, 224.623113)"><path style="stroke:none" d="M 9.25 -23.28125 L 9.25 -7.390625 C 9.25 -6.078125 9.53125 -5.148438 10.09375 -4.609375 C 10.65625 -4.066406 11.625 -3.796875 13 -3.796875 L 16.296875 -3.796875 L 16.296875 0 L 12.265625 0 C 9.765625 0 7.890625 -0.570312 6.640625 -1.71875 C 5.398438 -2.875 4.78125 -4.765625 4.78125 -7.390625 L 4.78125 -23.28125 L 1.28125 -23.28125 L 1.28125 -26.984375 L 4.78125 -26.984375 L 4.78125 -33.78125 L 9.25 -33.78125 L 9.25 -26.984375 L 16.296875 -26.984375 L 16.296875 -23.28125 Z M 9.25 -23.28125 "/></g></g><g style="fill:#000000;fill-opacity:1;"><g transform="translate(639.940296, 224.623113)"><path style="stroke:none" d="M 2.109375 -13.59375 C 2.109375 -16.34375 2.664062 -18.757812 3.78125 -20.84375 C 4.90625 -22.9375 6.441406 -24.554688 8.390625 -25.703125 C 10.347656 -26.847656 12.523438 -27.421875 14.921875 -27.421875 C 17.285156 -27.421875 19.335938 -26.910156 21.078125 -25.890625 C 22.816406 -24.878906 24.113281 -23.601562 24.96875 -22.0625 L 24.96875 -26.984375 L 29.484375 -26.984375 L 29.484375 0 L 24.96875 0 L 24.96875 -5.015625 C 24.070312 -3.441406 22.742188 -2.140625 20.984375 -1.109375 C 19.234375 -0.078125 17.195312 0.4375 14.875 0.4375 C 12.476562 0.4375 10.3125 -0.148438 8.375 -1.328125 C 6.4375 -2.515625 4.90625 -4.171875 3.78125 -6.296875 C 2.664062 -8.429688 2.109375 -10.863281 2.109375 -13.59375 Z M 24.96875 -13.546875 C 24.96875 -15.578125 24.554688 -17.347656 23.734375 -18.859375 C 22.910156 -20.367188 21.800781 -21.523438 20.40625 -22.328125 C 19.007812 -23.128906 17.472656 -23.53125 15.796875 -23.53125 C 14.128906 -23.53125 12.601562 -23.132812 11.21875 -22.34375 C 9.84375 -21.5625 8.742188 -20.414062 7.921875 -18.90625 C 7.109375 -17.394531 6.703125 -15.625 6.703125 -13.59375 C 6.703125 -11.519531 7.109375 -9.71875 7.921875 -8.1875 C 8.742188 -6.664062 9.84375 -5.503906 11.21875 -4.703125 C 12.601562 -3.898438 14.128906 -3.5 15.796875 -3.5 C 17.472656 -3.5 19.007812 -3.898438 20.40625 -4.703125 C 21.800781 -5.503906 22.910156 -6.664062 23.734375 -8.1875 C 24.554688 -9.71875 24.96875 -11.503906 24.96875 -13.546875 Z M 24.96875 -13.546875 "/></g></g><g style="fill:#000000;fill-opacity:1;"><g transform="translate(673.21456, 224.623113)"><path style="stroke:none" d="M 8.265625 -36.4375 L 8.265625 0 L 3.796875 0 L 3.796875 -36.4375 Z M 8.265625 -36.4375 "/></g></g><g style="fill:#000000;fill-opacity:1;"><g transform="translate(685.323259, 224.623113)"><path style="stroke:none" d="M 2.109375 -13.59375 C 2.109375 -16.34375 2.664062 -18.757812 3.78125 -20.84375 C 4.90625 -22.9375 6.441406 -24.554688 8.390625 -25.703125 C 10.347656 -26.847656 12.523438 -27.421875 14.921875 -27.421875 C 17.285156 -27.421875 19.335938 -26.910156 21.078125 -25.890625 C 22.816406 -24.878906 24.113281 -23.601562 24.96875 -22.0625 L 24.96875 -26.984375 L 29.484375 -26.984375 L 29.484375 0 L 24.96875 0 L 24.96875 -5.015625 C 24.070312 -3.441406 22.742188 -2.140625 20.984375 -1.109375 C 19.234375 -0.078125 17.195312 0.4375 14.875 0.4375 C 12.476562 0.4375 10.3125 -0.148438 8.375 -1.328125 C 6.4375 -2.515625 4.90625 -4.171875 3.78125 -6.296875 C 2.664062 -8.429688 2.109375 -10.863281 2.109375 -13.59375 Z M 24.96875 -13.546875 C 24.96875 -15.578125 24.554688 -17.347656 23.734375 -18.859375 C 22.910156 -20.367188 21.800781 -21.523438 20.40625 -22.328125 C 19.007812 -23.128906 17.472656 -23.53125 15.796875 -23.53125 C 14.128906 -23.53125 12.601562 -23.132812 11.21875 -22.34375 C 9.84375 -21.5625 8.742188 -20.414062 7.921875 -18.90625 C 7.109375 -17.394531 6.703125 -15.625 6.703125 -13.59375 C 6.703125 -11.519531 7.109375 -9.71875 7.921875 -8.1875 C 8.742188 -6.664062 9.84375 -5.503906 11.21875 -4.703125 C 12.601562 -3.898438 14.128906 -3.5 15.796875 -3.5 C 17.472656 -3.5 19.007812 -3.898438 20.40625 -4.703125 C 21.800781 -5.503906 22.910156 -6.664062 23.734375 -8.1875 C 24.554688 -9.71875 24.96875 -11.503906 24.96875 -13.546875 Z M 24.96875 -13.546875 "/></g></g><g style="fill:#000000;fill-opacity:1;"><g transform="translate(718.597523, 224.623113)"><path style="stroke:none" d="M 8.265625 -22.59375 C 9.054688 -24.132812 10.179688 -25.332031 11.640625 -26.1875 C 13.097656 -27.039062 14.878906 -27.46875 16.984375 -27.46875 L 16.984375 -22.84375 L 15.796875 -22.84375 C 10.773438 -22.84375 8.265625 -20.117188 8.265625 -14.671875 L 8.265625 0 L 3.796875 0 L 3.796875 -26.984375 L 8.265625 -26.984375 Z M 8.265625 -22.59375 "/></g></g><g style="fill:#000000;fill-opacity:1;"><g transform="translate(736.957436, 224.623113)"><path style="stroke:none" d="M 6.109375 -31.359375 C 5.253906 -31.359375 4.53125 -31.65625 3.9375 -32.25 C 3.34375 -32.84375 3.046875 -33.566406 3.046875 -34.421875 C 3.046875 -35.265625 3.34375 -35.984375 3.9375 -36.578125 C 4.53125 -37.171875 5.253906 -37.46875 6.109375 -37.46875 C 6.921875 -37.46875 7.613281 -37.171875 8.1875 -36.578125 C 8.769531 -35.984375 9.0625 -35.265625 9.0625 -34.421875 C 9.0625 -33.566406 8.769531 -32.84375 8.1875 -32.25 C 7.613281 -31.65625 6.921875 -31.359375 6.109375 -31.359375 Z M 8.265625 -26.984375 L 8.265625 0 L 3.796875 0 L 3.796875 -26.984375 Z M 8.265625 -26.984375 "/></g></g><g style="fill:#000000;fill-opacity:1;"><g transform="translate(749.066134, 224.623113)"><path style="stroke:none" d="M 15.5625 0.4375 C 13.03125 0.4375 10.738281 -0.132812 8.6875 -1.28125 C 6.632812 -2.425781 5.023438 -4.054688 3.859375 -6.171875 C 2.691406 -8.296875 2.109375 -10.753906 2.109375 -13.546875 C 2.109375 -16.296875 2.707031 -18.726562 3.90625 -20.84375 C 5.113281 -22.96875 6.75 -24.59375 8.8125 -25.71875 C 10.882812 -26.851562 13.195312 -27.421875 15.75 -27.421875 C 18.3125 -27.421875 20.625 -26.851562 22.6875 -25.71875 C 24.757812 -24.59375 26.394531 -22.976562 27.59375 -20.875 C 28.789062 -18.769531 29.390625 -16.328125 29.390625 -13.546875 C 29.390625 -10.753906 28.773438 -8.296875 27.546875 -6.171875 C 26.316406 -4.054688 24.648438 -2.425781 22.546875 -1.28125 C 20.441406 -0.132812 18.113281 0.4375 15.5625 0.4375 Z M 15.5625 -3.5 C 17.164062 -3.5 18.671875 -3.875 20.078125 -4.625 C 21.492188 -5.382812 22.632812 -6.519531 23.5 -8.03125 C 24.375 -9.539062 24.8125 -11.378906 24.8125 -13.546875 C 24.8125 -15.703125 24.382812 -17.535156 23.53125 -19.046875 C 22.675781 -20.554688 21.5625 -21.679688 20.1875 -22.421875 C 18.8125 -23.160156 17.316406 -23.53125 15.703125 -23.53125 C 14.066406 -23.53125 12.566406 -23.160156 11.203125 -22.421875 C 9.835938 -21.679688 8.742188 -20.554688 7.921875 -19.046875 C 7.109375 -17.535156 6.703125 -15.703125 6.703125 -13.546875 C 6.703125 -11.335938 7.101562 -9.476562 7.90625 -7.96875 C 8.707031 -6.46875 9.78125 -5.347656 11.125 -4.609375 C 12.46875 -3.867188 13.945312 -3.5 15.5625 -3.5 Z M 15.5625 -3.5 "/></g></g><g style="fill:#000000;fill-opacity:1;"><g transform="translate(287.365674, 155.762192)"><path style="stroke:none" d="M 45.078125 0 L 29.40625 -28.453125 L 25.015625 -28.453125 L 25.015625 0 L 6.65625 0 L 6.65625 -75.359375 L 37.46875 -75.359375 C 43.40625 -75.359375 48.46875 -74.316406 52.65625 -72.234375 C 56.84375 -70.160156 59.972656 -67.316406 62.046875 -63.703125 C 64.117188 -60.085938 65.15625 -56.0625 65.15625 -51.625 C 65.15625 -46.625 63.738281 -42.15625 60.90625 -38.21875 C 58.082031 -34.28125 53.914062 -31.488281 48.40625 -29.84375 L 65.796875 0 Z M 25.015625 -41.4375 L 36.390625 -41.4375 C 39.753906 -41.4375 42.273438 -42.257812 43.953125 -43.90625 C 45.640625 -45.550781 46.484375 -47.875 46.484375 -50.875 C 46.484375 -53.738281 45.640625 -55.992188 43.953125 -57.640625 C 42.273438 -59.285156 39.753906 -60.109375 36.390625 -60.109375 L 25.015625 -60.109375 Z M 25.015625 -41.4375 "/></g></g><g style="fill:#000000;fill-opacity:1;"><g transform="translate(357.336171, 155.762192)"><path style="stroke:none" d="M 33.921875 0.859375 C 28.054688 0.859375 22.78125 -0.390625 18.09375 -2.890625 C 13.40625 -5.398438 9.71875 -8.976562 7.03125 -13.625 C 4.34375 -18.28125 3 -23.722656 3 -29.953125 C 3 -36.109375 4.359375 -41.53125 7.078125 -46.21875 C 9.796875 -50.90625 13.515625 -54.5 18.234375 -57 C 22.960938 -59.5 28.265625 -60.75 34.140625 -60.75 C 40.003906 -60.75 45.296875 -59.5 50.015625 -57 C 54.742188 -54.5 58.46875 -50.90625 61.1875 -46.21875 C 63.90625 -41.53125 65.265625 -36.109375 65.265625 -29.953125 C 65.265625 -23.796875 63.882812 -18.375 61.125 -13.6875 C 58.375 -9 54.617188 -5.398438 49.859375 -2.890625 C 45.097656 -0.390625 39.785156 0.859375 33.921875 0.859375 Z M 33.921875 -15.03125 C 37.429688 -15.03125 40.421875 -16.316406 42.890625 -18.890625 C 45.359375 -21.460938 46.59375 -25.148438 46.59375 -29.953125 C 46.59375 -34.742188 45.390625 -38.425781 42.984375 -41 C 40.585938 -43.582031 37.640625 -44.875 34.140625 -44.875 C 30.554688 -44.875 27.582031 -43.601562 25.21875 -41.0625 C 22.863281 -38.519531 21.6875 -34.816406 21.6875 -29.953125 C 21.6875 -25.148438 22.847656 -21.460938 25.171875 -18.890625 C 27.492188 -16.316406 30.410156 -15.03125 33.921875 -15.03125 Z M 33.921875 -15.03125 "/></g></g><g style="fill:#000000;fill-opacity:1;"><g transform="translate(425.696926, 155.762192)"><path style="stroke:none" d="M 67.84375 -59.890625 L 30.265625 28.453125 L 10.515625 28.453125 L 24.265625 -2.046875 L -0.109375 -59.890625 L 20.390625 -59.890625 L 34.25 -22.4375 L 47.984375 -59.890625 Z M 67.84375 -59.890625 "/></g></g><g style="fill:#000000;fill-opacity:1;"><g transform="translate(493.521092, 155.762192)"><path style="stroke:none" d="M 3 -30.0625 C 3 -36.207031 4.160156 -41.609375 6.484375 -46.265625 C 8.816406 -50.921875 11.984375 -54.5 15.984375 -57 C 19.992188 -59.5 24.46875 -60.75 29.40625 -60.75 C 33.632812 -60.75 37.335938 -59.890625 40.515625 -58.171875 C 43.703125 -56.460938 46.15625 -54.210938 47.875 -51.421875 L 47.875 -59.890625 L 66.234375 -59.890625 L 66.234375 0 L 47.875 0 L 47.875 -8.484375 C 46.082031 -5.691406 43.59375 -3.4375 40.40625 -1.71875 C 37.226562 0 33.53125 0.859375 29.3125 0.859375 C 24.4375 0.859375 19.992188 -0.410156 15.984375 -2.953125 C 11.984375 -5.492188 8.816406 -9.109375 6.484375 -13.796875 C 4.160156 -18.484375 3 -23.90625 3 -30.0625 Z M 47.875 -29.953125 C 47.875 -34.523438 46.601562 -38.132812 44.0625 -40.78125 C 41.519531 -43.4375 38.425781 -44.765625 34.78125 -44.765625 C 31.132812 -44.765625 28.039062 -43.457031 25.5 -40.84375 C 22.957031 -38.226562 21.6875 -34.632812 21.6875 -30.0625 C 21.6875 -25.476562 22.957031 -21.84375 25.5 -19.15625 C 28.039062 -16.476562 31.132812 -15.140625 34.78125 -15.140625 C 38.425781 -15.140625 41.519531 -16.460938 44.0625 -19.109375 C 46.601562 -21.753906 47.875 -25.367188 47.875 -29.953125 Z M 47.875 -29.953125 "/></g></g><g style="fill:#000000;fill-opacity:1;"><g transform="translate(566.38915, 155.762192)"><path style="stroke:none" d="M 25.015625 -79.4375 L 25.015625 0 L 6.65625 0 L 6.65625 -79.4375 Z M 25.015625 -79.4375 "/></g></g><g style="fill:#000000;fill-opacity:1;"><g transform="translate(598.047582, 155.762192)"><path style="stroke:none" d=""/></g></g><g style="fill:#000000;fill-opacity:1;"><g transform="translate(620.798728, 155.762192)"><path style="stroke:none" d="M 3.546875 -37.78125 C 3.546875 -45.226562 5.15625 -51.867188 8.375 -57.703125 C 11.59375 -63.535156 16.082031 -68.078125 21.84375 -71.328125 C 27.601562 -74.585938 34.132812 -76.21875 41.4375 -76.21875 C 50.382812 -76.21875 58.039062 -73.851562 64.40625 -69.125 C 70.769531 -64.40625 75.03125 -57.96875 77.1875 -49.8125 L 57 -49.8125 C 55.5 -52.957031 53.367188 -55.351562 50.609375 -57 C 47.859375 -58.644531 44.726562 -59.46875 41.21875 -59.46875 C 35.5625 -59.46875 30.976562 -57.5 27.46875 -53.5625 C 23.96875 -49.625 22.21875 -44.363281 22.21875 -37.78125 C 22.21875 -31.195312 23.96875 -25.9375 27.46875 -22 C 30.976562 -18.0625 35.5625 -16.09375 41.21875 -16.09375 C 44.726562 -16.09375 47.859375 -16.914062 50.609375 -18.5625 C 53.367188 -20.21875 55.5 -22.617188 57 -25.765625 L 77.1875 -25.765625 C 75.03125 -17.609375 70.769531 -11.1875 64.40625 -6.5 C 58.039062 -1.8125 50.382812 0.53125 41.4375 0.53125 C 34.132812 0.53125 27.601562 -1.09375 21.84375 -4.34375 C 16.082031 -7.601562 11.59375 -12.128906 8.375 -17.921875 C 5.15625 -23.722656 3.546875 -30.34375 3.546875 -37.78125 Z M 3.546875 -37.78125 "/></g></g><g style="fill:#000000;fill-opacity:1;"><g transform="translate(702.574071, 155.762192)"><path style="stroke:none" d="M 3 -30.0625 C 3 -36.207031 4.160156 -41.609375 6.484375 -46.265625 C 8.816406 -50.921875 11.984375 -54.5 15.984375 -57 C 19.992188 -59.5 24.46875 -60.75 29.40625 -60.75 C 33.632812 -60.75 37.335938 -59.890625 40.515625 -58.171875 C 43.703125 -56.460938 46.15625 -54.210938 47.875 -51.421875 L 47.875 -59.890625 L 66.234375 -59.890625 L 66.234375 0 L 47.875 0 L 47.875 -8.484375 C 46.082031 -5.691406 43.59375 -3.4375 40.40625 -1.71875 C 37.226562 0 33.53125 0.859375 29.3125 0.859375 C 24.4375 0.859375 19.992188 -0.410156 15.984375 -2.953125 C 11.984375 -5.492188 8.816406 -9.109375 6.484375 -13.796875 C 4.160156 -18.484375 3 -23.90625 3 -30.0625 Z M 47.875 -29.953125 C 47.875 -34.523438 46.601562 -38.132812 44.0625 -40.78125 C 41.519531 -43.4375 38.425781 -44.765625 34.78125 -44.765625 C 31.132812 -44.765625 28.039062 -43.457031 25.5 -40.84375 C 22.957031 -38.226562 21.6875 -34.632812 21.6875 -30.0625 C 21.6875 -25.476562 22.957031 -21.84375 25.5 -19.15625 C 28.039062 -16.476562 31.132812 -15.140625 34.78125 -15.140625 C 38.425781 -15.140625 41.519531 -16.460938 44.0625 -19.109375 C 46.601562 -21.753906 47.875 -25.367188 47.875 -29.953125 Z M 47.875 -29.953125 "/></g></g><g style="fill:#000000;fill-opacity:1;"><g transform="translate(775.4421, 155.762192)"><path style="stroke:none" d="M 25.015625 -49.921875 C 27.160156 -53.210938 29.84375 -55.804688 33.0625 -57.703125 C 36.28125 -59.597656 39.859375 -60.546875 43.796875 -60.546875 L 43.796875 -41.109375 L 38.75 -41.109375 C 34.164062 -41.109375 30.726562 -40.125 28.4375 -38.15625 C 26.15625 -36.1875 25.015625 -32.734375 25.015625 -27.796875 L 25.015625 0 L 6.65625 0 L 6.65625 -59.890625 L 25.015625 -59.890625 Z M 25.015625 -49.921875 "/></g></g><g style="fill:#000000;fill-opacity:1;"><g transform="translate(821.373664, 155.762192)"><path style="stroke:none" d="M 63.125 -30.921875 C 63.125 -29.203125 63.015625 -27.410156 62.796875 -25.546875 L 21.25 -25.546875 C 21.539062 -21.828125 22.738281 -18.984375 24.84375 -17.015625 C 26.957031 -15.046875 29.550781 -14.0625 32.625 -14.0625 C 37.207031 -14.0625 40.394531 -15.992188 42.1875 -19.859375 L 61.71875 -19.859375 C 60.71875 -15.921875 58.910156 -12.378906 56.296875 -9.234375 C 53.691406 -6.085938 50.421875 -3.617188 46.484375 -1.828125 C 42.546875 -0.0351562 38.144531 0.859375 33.28125 0.859375 C 27.40625 0.859375 22.175781 -0.390625 17.59375 -2.890625 C 13.019531 -5.398438 9.441406 -8.976562 6.859375 -13.625 C 4.285156 -18.28125 3 -23.722656 3 -29.953125 C 3 -36.171875 4.269531 -41.609375 6.8125 -46.265625 C 9.351562 -50.921875 12.910156 -54.5 17.484375 -57 C 22.066406 -59.5 27.332031 -60.75 33.28125 -60.75 C 39.070312 -60.75 44.222656 -59.53125 48.734375 -57.09375 C 53.242188 -54.664062 56.769531 -51.195312 59.3125 -46.6875 C 61.851562 -42.1875 63.125 -36.929688 63.125 -30.921875 Z M 44.328125 -35.75 C 44.328125 -38.894531 43.253906 -41.394531 41.109375 -43.25 C 38.960938 -45.113281 36.28125 -46.046875 33.0625 -46.046875 C 29.988281 -46.046875 27.394531 -45.148438 25.28125 -43.359375 C 23.164062 -41.578125 21.859375 -39.039062 21.359375 -35.75 Z M 44.328125 -35.75 "/></g></g><g clip-rule="nonzero" clip-path="url(#bea0da53df)"><path style=" stroke:none;fill-rule:nonzero;fill:#d9d9d9;fill-opacity:1;" d="M 208.960938 172.527344 C 204.40625 171.160156 199.773438 169.976562 195.363281 168.226562 C 192.894531 167.253906 192.308594 168.105469 191.503906 170.09375 C 183.554688 189.777344 168.878906 201.199219 147.960938 203.792969 C 132.671875 205.695312 118.738281 201.261719 107.382812 190.730469 C 99.269531 183.207031 91.941406 174.839844 84.203125 166.902344 C 83.121094 165.785156 83.613281 165.1875 84.519531 164.453125 C 87.546875 162.015625 90.585938 159.582031 93.5625 157.082031 C 98.664062 152.792969 104.234375 149.011719 108.160156 143.457031 C 109.847656 141.460938 110.941406 139.117188 112.085938 136.804688 C 116.4375 127.09375 117.058594 117.214844 113.75 107.242188 C 115.71875 105.757812 118.074219 104.496094 120.328125 103.480469 C 120.566406 103.445312 120.839844 103.351562 121.179688 103.199219 C 123.066406 102.335938 124.992188 101.59375 126.964844 100.980469 C 126.964844 100.980469 126.964844 100.980469 126.972656 100.980469 C 130.25 99.957031 133.609375 99.273438 137.046875 98.976562 C 149.90625 97.839844 161.789062 100.785156 172.445312 108.222656 C 181.625 114.628906 188.042969 123.195312 191.957031 133.648438 C 192.351562 134.695312 192.621094 135.558594 194.066406 135.089844 C 199.148438 133.453125 204.261719 131.871094 209.34375 130.253906 C 209.96875 130.054688 210.574219 129.75 210.675781 129.007812 C 210.523438 128.632812 210.359375 128.296875 210.25 127.957031 C 205.4375 113.847656 196.878906 102.464844 184.996094 93.566406 C 176.582031 87.277344 167.191406 83.054688 156.925781 81.023438 C 149.71875 79.601562 142.441406 79.0625 135.035156 79.933594 C 131.65625 80.324219 128.347656 80.921875 125.09375 81.714844 L 125.105469 81.707031 C 125.105469 81.707031 112.742188 84.4375 103.117188 90.691406 C 95.917969 83.96875 86.082031 79.738281 74.980469 79.839844 C 51.238281 80.0625 27.496094 79.925781 3.75 79.839844 C 1.472656 79.832031 0.960938 80.480469 0.96875 82.679688 C 1.039062 117.8125 1.019531 152.945312 1.019531 188.078125 C 1.019531 199.035156 1.054688 209.980469 0.96875 220.925781 L 20.335938 220.925781 C 20.335938 220.710938 20.335938 220.480469 20.335938 220.226562 C 20.328125 180.683594 20.351562 141.136719 20.285156 101.59375 C 20.277344 99.460938 20.875 98.882812 22.988281 98.898438 C 40.265625 98.976562 57.535156 98.949219 74.808594 98.933594 C 77.710938 98.925781 80.492188 99.445312 83.214844 100.425781 C 92.769531 103.871094 98.492188 114.878906 96.054688 124.628906 C 94.699219 130.0625 91.488281 134.007812 87.292969 137.425781 C 76.746094 146.019531 66.210938 154.644531 55.664062 163.261719 L 73.582031 183.558594 C 78.90625 189.171875 84.261719 194.757812 89.578125 200.390625 C 101.222656 212.734375 115.4375 220.261719 132.195312 222.632812 C 149.128906 225.027344 165.117188 221.820312 179.714844 212.863281 C 194.335938 203.894531 204.585938 191.253906 210.265625 174.972656 C 210.835938 173.371094 210.300781 172.925781 208.960938 172.527344 Z M 208.960938 172.527344 "/><path style=" stroke:none;fill-rule:nonzero;fill:#000000;fill-opacity:1;" d="M 209.277344 172.527344 C 204.714844 171.160156 200.074219 169.976562 195.65625 168.226562 C 193.1875 167.253906 192.597656 168.105469 191.796875 170.09375 C 183.832031 189.777344 169.136719 201.199219 148.183594 203.792969 C 132.871094 205.695312 118.917969 201.261719 107.546875 190.730469 C 99.421875 183.207031 92.082031 174.839844 84.332031 166.902344 C 83.246094 165.785156 83.742188 165.1875 84.648438 164.453125 C 87.679688 162.015625 90.722656 159.582031 93.703125 157.082031 C 98.8125 152.792969 104.394531 149.011719 108.324219 143.457031 C 110.015625 141.460938 111.109375 139.117188 112.253906 136.804688 C 116.613281 127.09375 117.234375 117.214844 113.921875 107.242188 C 115.894531 105.757812 118.253906 104.496094 120.507812 103.480469 C 120.746094 103.445312 121.019531 103.351562 121.363281 103.199219 C 123.25 102.335938 125.183594 101.59375 127.15625 100.980469 C 127.15625 100.980469 127.15625 100.980469 127.164062 100.980469 C 130.445312 99.957031 133.8125 99.273438 137.253906 98.976562 C 150.132812 97.839844 162.035156 100.785156 172.707031 108.222656 C 181.902344 114.628906 188.328125 123.195312 192.25 133.648438 C 192.640625 134.695312 192.914062 135.558594 194.359375 135.089844 C 199.453125 133.453125 204.570312 131.871094 209.660156 130.253906 C 210.285156 130.054688 210.890625 129.75 210.996094 129.007812 C 210.839844 128.632812 210.679688 128.296875 210.566406 127.957031 C 205.75 113.847656 197.179688 102.464844 185.277344 93.566406 C 176.851562 87.277344 167.445312 83.054688 157.164062 81.023438 C 149.945312 79.601562 142.65625 79.0625 135.238281 79.933594 C 131.855469 80.324219 128.539062 80.921875 125.285156 81.714844 L 125.292969 81.707031 C 125.292969 81.707031 112.910156 84.4375 103.273438 90.691406 C 96.0625 83.96875 86.210938 79.738281 75.09375 79.839844 C 51.3125 80.0625 27.535156 79.925781 3.753906 79.839844 C 1.472656 79.832031 0.960938 80.480469 0.96875 82.679688 C 1.039062 117.8125 1.019531 152.945312 1.019531 188.078125 C 1.019531 199.035156 1.054688 209.980469 0.96875 220.925781 L 20.367188 220.925781 C 20.367188 220.710938 20.367188 220.480469 20.367188 220.226562 C 20.359375 180.683594 20.382812 141.136719 20.316406 101.59375 C 20.304688 99.460938 20.90625 98.882812 23.023438 98.898438 C 40.324219 98.976562 57.621094 98.949219 74.921875 98.933594 C 77.828125 98.925781 80.613281 99.445312 83.339844 100.425781 C 92.910156 103.871094 98.644531 114.878906 96.199219 124.628906 C 94.839844 130.0625 91.628906 134.007812 87.421875 137.425781 C 76.863281 146.019531 66.308594 154.644531 55.75 163.261719 L 73.691406 183.558594 C 79.023438 189.171875 84.390625 194.757812 89.714844 200.390625 C 101.375 212.734375 115.613281 220.261719 132.394531 222.632812 C 149.355469 225.027344 165.367188 221.820312 179.988281 212.863281 C 194.632812 203.894531 204.894531 191.253906 210.585938 174.972656 C 211.15625 173.371094 210.617188 172.925781 209.277344 172.527344 Z M 209.277344 172.527344 "/></g></g></svg>